<svg width="21" height="29" viewBox="0 0 21 29" fill="none" xmlns="http://www.w3.org/2000/svg">
<path d="M4.16667 21.6472L1.87558 22.797C1.61262 22.9288 1.39143 23.1315 1.23679 23.3822C1.08215 23.633 1.00016 23.922 1 24.2169V28H20V24.2169C19.9998 23.922 19.9179 23.633 19.7632 23.3822C19.6086 23.1315 19.3874 22.9288 19.1244 22.797L16.8333 21.6472H4.16667ZM5.75 1.00042L7.33333 5.76505L1.80592 9.17653C1.51207 9.35765 1.28521 9.63006 1.15984 9.95235C1.03447 10.2746 1.01743 10.6292 1.11133 10.9621C1.20523 11.295 1.40492 11.588 1.68005 11.7966C1.95517 12.0052 2.29069 12.1181 2.63558 12.1179H7.33333L4.05108 21.6472H16.656L16.8333 13.7061C16.8333 8.94147 15.1075 4.20384 10.5 2.58863C7.42833 1.51182 5.845 0.982949 5.75 1.00042Z" stroke="#FFFD54" stroke-width="2" stroke-linecap="round" stroke-linejoin="round"/>
</svg>
