<svg width="1022" height="575" viewBox="0 0 1022 575" fill="none" xmlns="http://www.w3.org/2000/svg">
    <path
        d="M503.177 303.129L470.064 325.06C470.064 325.06 471.189 326.658 471.955 327.39C473.553 328.92 474.588 329.426 474.588 329.426L473.936 331.677L465.685 336.459C465.685 336.459 465.393 340.24 469.602 342.423C473.091 344.235 476.569 344.246 476.569 344.246V349.681C476.569 349.681 480.036 356.432 487.082 356.432C494.128 356.432 497.493 348.747 497.493 348.747L497.583 344.055C497.583 344.055 500.757 343.739 503.785 341.973C506.081 340.623 506.892 338.417 506.914 336.538C506.937 334.94 506.79 334.625 506.79 334.625L497.201 329.618C497.201 329.618 501.467 327.03 503.763 321.178C508.085 310.207 503.177 303.129 503.177 303.129ZM485.473 374.166L461.6 379.849C461.6 379.849 460.969 380.726 460.981 381.671C461.003 383.258 461.678 383.629 461.678 383.629L452.145 395.186C452.145 395.186 451.031 397.47 451.087 400.362C451.143 403.13 452.291 404.829 452.449 404.75L449.354 408.88L447.384 409.724C447.384 409.724 446.315 411.457 446.45 413.572C446.618 416.183 448.307 418.962 454.891 422.011C461.701 425.173 469.062 428.009 486.137 428.009C503.211 428.009 516.155 424.633 521.501 420.886C526.848 417.139 527.275 413.876 527.366 412.469C527.434 411.423 527.22 410.378 526.746 409.443C526.701 409.364 526.6 409.206 526.6 409.206L522.379 404.649C522.379 404.649 523.392 402.14 523.269 399.473C523.111 396.108 521.411 393.678 521.411 393.678L511.462 385.047L511.552 382.797C511.552 382.797 511.72 382.077 511.394 380.873C511.113 379.837 510.887 379.263 510.651 378.903C509.953 377.834 509.098 377.947 509.098 377.947L485.473 374.166Z"
        fill="#474C50" />
    <path
        d="M470.03 325.06C470.03 325.06 464.751 318.545 467.002 308.227C469.253 297.908 478.528 291.258 489.04 292.755C499.553 294.251 503.774 304.198 503.774 304.198C503.774 304.198 503.47 316.599 492.113 322.607C480.756 328.616 470.03 325.06 470.03 325.06Z"
        fill="#5E6367" />
    <path
        d="M484.73 296.041C487.217 297.459 485.866 299.045 482.107 301.476C478.618 303.737 474.42 310.388 473.283 312.075C472.146 313.763 471.403 313.955 470.84 313.572C470.278 313.189 468.499 312.255 470.086 306.911C471.673 301.566 475.905 298.19 477.965 296.963C480.036 295.759 482.76 294.915 484.73 296.041Z"
        fill="#FFFFFE" />
    <path
        d="M474.588 329.426C474.588 329.426 479.89 332.96 485.608 333.027C493.678 333.106 497.201 329.618 497.201 329.618C497.201 329.618 501.016 329.224 503.74 330.642C506.126 331.879 506.79 334.648 506.79 334.648C506.79 334.648 504.269 341.208 485.9 340.713C467.52 340.217 465.685 336.47 465.685 336.47C465.685 336.47 465.201 332.611 468.477 330.72C471.223 329.123 474.588 329.426 474.588 329.426Z"
        fill="#5E6367" />
    <path
        d="M471.189 331.373C469.433 331.204 466.743 332.284 467.07 334.67C467.396 337.056 472.844 338.136 475.478 338.293C478.111 338.451 482.321 338.788 482.231 336.313C482.152 333.837 475.804 335.075 473.328 333.759C470.852 332.442 473.744 331.621 471.189 331.373Z"
        fill="#AEAEAF" />
    <path
        d="M476.558 349.692C476.558 349.692 479.924 351.155 486.925 351.155C493.925 351.155 497.482 348.758 497.482 348.758C497.482 348.758 497.471 356.68 500.769 364.669C504.067 372.659 506.453 376.529 506.453 376.529C506.453 376.529 508.603 376.383 509.424 377.047C510.246 377.711 511.045 379.725 511.045 379.725C510.775 380.096 504.911 385.531 487.296 385.149C468.51 384.744 461.6 379.838 461.6 379.838C461.6 379.838 462.703 378.003 463.963 377.587C465.483 377.081 466.462 377.216 466.462 377.216C466.462 377.216 472.101 370.431 474.408 363.758C476.705 357.085 476.558 349.692 476.558 349.692Z"
        fill="#5E6367" />
    <path
        d="M486.519 379.984C493.441 379.984 499.463 378.589 502.018 377.846C504.573 377.103 506.509 375.854 508.49 376.518C509.604 376.89 510.032 377.733 510.032 377.733C510.032 377.733 502.671 383.922 486.44 383.292C469.141 382.628 462.523 378.667 462.523 378.667C462.523 378.667 463.648 377.058 466.181 377.216C466.856 377.261 467.486 377.452 471.358 378.352C475.23 379.253 479.755 379.984 486.519 379.984Z"
        fill="#B0B0AF" />
    <path
        d="M461.678 383.618C461.678 383.618 473.08 388.131 486.519 388.311C504.494 388.547 511.563 382.797 511.563 382.797C511.563 382.797 515.784 386.668 517.506 388.479C519.228 390.291 521.411 393.678 521.411 393.678C521.411 393.678 513.881 406.112 486.362 405.864C458.831 405.617 452.145 395.186 452.145 395.186C452.145 395.186 453.597 391.382 456.602 388.232C458.448 386.285 461.678 383.618 461.678 383.618Z"
        fill="#5E6367" />
    <path
        d="M461.465 388.715C459.416 388.164 455.364 392.26 455.859 394.814C456.107 396.12 456.838 397.571 460.8 399.011C464.425 400.328 470.03 400.26 470.03 398.1C470.03 395.298 465.168 395.557 463.929 393.07C462.95 391.112 463.603 389.301 461.465 388.715Z"
        fill="#B0B0AF" />
    <path
        d="M452.449 404.739C452.449 404.739 450.828 405.842 449.567 407.079C447.98 408.644 447.384 409.713 447.384 409.713C447.384 409.713 451.019 422.788 485.956 423.069C520.162 423.35 526.6 409.195 526.6 409.195C526.6 409.195 525.486 407.586 524.315 406.416C523.145 405.245 522.368 404.649 522.368 404.649C522.368 404.649 512.452 415.845 485.72 415.553C460.238 415.294 452.449 404.739 452.449 404.739Z"
        fill="#5E6367" />
    <path
        d="M450.693 408.34C449.759 409.386 449.793 411.558 452.55 413.37C455.499 415.305 460.249 418.062 467.059 419.334C473.992 420.628 481.218 420.234 480.768 417.916C480.464 416.329 474.453 418.107 463.794 413.887C457.536 411.412 455.6 410.05 454.329 409.15C453.507 408.554 452.044 406.832 450.693 408.34ZM458.763 396.401C460.936 396.401 460.936 393.025 458.763 393.025C456.591 393.025 456.591 396.401 458.763 396.401Z"
        fill="#B0B0AF" />
    <path
        d="M418.248 116.48L463.919 137.979C463.919 137.979 468.22 146.039 482.187 137.979C496.154 129.918 543.912 128.124 560.333 129.024C576.754 129.923 689.584 100.364 713.76 105.736V178.16L600.931 170.227C600.931 170.227 583.823 164.594 584.318 178.16C584.813 191.725 560.636 218.596 539.142 234.717C517.648 250.838 525.712 272.337 520.336 277.709C514.965 283.081 505.767 291.142 502.302 277.709C498.842 264.276 493.472 250.838 512.272 223.968C531.078 197.097 525.702 197.097 514.96 189.037C504.213 180.976 477.348 191.725 474.666 205.158C474.666 205.158 463.919 218.591 471.978 232.028C480.037 245.461 493.472 269.648 477.348 288.458C477.348 288.458 471.978 291.147 469.29 272.337C466.601 253.527 448.828 242.735 446.971 240.073C445.113 237.411 436.282 223.451 452.783 196.842C469.29 170.232 431.891 196.842 431.891 196.842C431.891 196.842 372.572 234.722 353.772 223.973C353.772 223.973 337.654 218.447 353.772 209.119C369.889 199.791 394.066 199.791 423.619 170.232C423.619 170.232 391.383 162.171 386.007 159.483C380.631 156.794 361.831 151.422 361.831 137.984C361.831 137.984 431.678 146.045 439.737 146.045C447.801 146.039 418.248 137.979 418.248 116.48Z"
        fill="url(#paint0_linear_1135_1453)" />
    <defs>
        <linearGradient id="paint0_linear_1135_1453" x1="640.84" y1="260.505" x2="423.646" y2="68.1754"
            gradientUnits="userSpaceOnUse">
            <stop stop-color="#F88948" />
            <stop offset="1" stop-color="#BF5A00" />
        </linearGradient>
    </defs>
</svg>