<svg width="22" height="37" viewBox="0 0 22 37" fill="none" xmlns="http://www.w3.org/2000/svg">
<path d="M9.77557 36.6364V0.272725H12.1051V36.6364H9.77557ZM17.0625 11.5511C16.911 10.2064 16.286 9.16477 15.1875 8.42614C14.089 7.67803 12.7064 7.30398 11.0398 7.30398C9.84659 7.30398 8.81439 7.49337 7.94318 7.87216C7.07197 8.24148 6.39489 8.75284 5.91193 9.40625C5.43845 10.0502 5.2017 10.7841 5.2017 11.608C5.2017 12.2992 5.36269 12.8958 5.68466 13.3977C6.0161 13.8996 6.44697 14.321 6.97727 14.6619C7.51705 14.9934 8.0947 15.2727 8.71023 15.5C9.32576 15.7178 9.91761 15.8977 10.4858 16.0398L13.3267 16.7784C14.2547 17.0057 15.2064 17.3134 16.1818 17.7017C17.1572 18.09 18.0616 18.6013 18.8949 19.2358C19.7282 19.8703 20.4006 20.6562 20.9119 21.5938C21.4328 22.5312 21.6932 23.6534 21.6932 24.9602C21.6932 26.608 21.267 28.071 20.4148 29.3494C19.572 30.6278 18.3456 31.6364 16.7358 32.375C15.1354 33.1136 13.1989 33.483 10.9261 33.483C8.74811 33.483 6.86364 33.1373 5.27273 32.446C3.68182 31.7547 2.43655 30.7746 1.53693 29.5057C0.637311 28.2273 0.140152 26.7121 0.0454547 24.9602H4.44886C4.53409 26.0114 4.875 26.8873 5.47159 27.5881C6.07765 28.2794 6.84943 28.7955 7.78693 29.1364C8.7339 29.4678 9.77083 29.6335 10.8977 29.6335C12.1383 29.6335 13.2415 29.4394 14.2074 29.0511C15.1828 28.6534 15.9498 28.1042 16.5085 27.4034C17.0672 26.6932 17.3466 25.8646 17.3466 24.9176C17.3466 24.0559 17.1004 23.3504 16.608 22.8011C16.125 22.2519 15.4669 21.7973 14.6335 21.4375C13.8097 21.0777 12.8769 20.7604 11.8352 20.4858L8.39773 19.5483C6.06818 18.9138 4.22159 17.9811 2.85795 16.75C1.50379 15.5189 0.826705 13.8902 0.826705 11.8636C0.826705 10.1875 1.28125 8.72443 2.19034 7.47443C3.09943 6.22443 4.33049 5.25379 5.88352 4.5625C7.43655 3.86174 9.18845 3.51136 11.1392 3.51136C13.1089 3.51136 14.8466 3.85701 16.3523 4.5483C17.8674 5.23958 19.0606 6.19129 19.9318 7.40341C20.803 8.60606 21.2576 9.98864 21.2955 11.5511H17.0625Z" fill="white"/>
</svg>
