<svg width="36" height="36" viewBox="0 0 36 36" fill="none" xmlns="http://www.w3.org/2000/svg">
    <g clip-path="url(#clip0_768_2720)">
        <path
            d="M18 7.8C19.6016 7.8 20.9 6.50163 20.9 4.9C20.9 3.29837 19.6016 2 18 2C16.3983 2 15.1 3.29837 15.1 4.9C15.1 6.50163 16.3983 7.8 18 7.8Z"
            fill="#C9C9C9" />
        <path
            d="M18 20.9001C19.6016 20.9001 20.9 19.6017 20.9 18.0001C20.9 16.3985 19.6016 15.1001 18 15.1001C16.3983 15.1001 15.1 16.3985 15.1 18.0001C15.1 19.6017 16.3983 20.9001 18 20.9001Z"
            fill="#C9C9C9" />
        <path
            d="M18 34.0002C19.6016 34.0002 20.9 32.7018 20.9 31.1002C20.9 29.4986 19.6016 28.2002 18 28.2002C16.3983 28.2002 15.1 29.4986 15.1 31.1002C15.1 32.7018 16.3983 34.0002 18 34.0002Z"
            fill="#C9C9C9" />
    </g>
    <defs>
        <clipPath id="clip0_768_2720">
            <rect width="36" height="36" fill="white" />
        </clipPath>
    </defs>
</svg>