<svg width="34" height="34" viewBox="0 0 34 34" fill="none" xmlns="http://www.w3.org/2000/svg">
    <path
        d="M25.6419 14.167V13.3581C25.6419 10.1196 29.8919 10.1196 29.8919 13.3581M12.8919 17.0003L10.0529 20.7857C9.65622 21.3145 9.45694 21.9653 9.48953 22.6255C9.52213 23.2858 9.78456 23.9138 10.2314 24.401L15.592 30.249C16.1275 30.8341 16.884 31.167 17.6788 31.167H24.2252C27.6252 31.167 29.8919 28.3337 29.8919 25.5003V13.3581L12.8919 17.0003Z"
        stroke="#FEDE40" stroke-width="1.5" stroke-linecap="round" stroke-linejoin="round" />
    <path
        d="M17.1418 14.1668V4.95708C17.1415 4.39374 16.9174 3.8536 16.5189 3.45539C16.1205 3.05718 15.5802 2.8335 15.0168 2.8335C14.4533 2.8335 13.9128 3.05738 13.5142 3.45589C13.1157 3.85441 12.8918 4.39491 12.8918 4.9585V21.2502M21.3918 14.1668V11.7387C21.3918 8.50016 25.6418 8.50016 25.6418 11.7387V14.1668H21.3918ZM17.1418 14.1668V10.6252C17.1418 7.38666 21.3918 7.38666 21.3918 10.6252V14.1668H17.1418Z"
        stroke="#FEDE40" stroke-width="1.5" stroke-linecap="round" stroke-linejoin="round" />
</svg>