<svg width="12" height="24" viewBox="0 0 12 24" fill="none" xmlns="http://www.w3.org/2000/svg">
    <path
        d="M9.89747 23.0832C9.66093 23.084 9.42722 23.0318 9.2135 22.9304C8.99978 22.829 8.8115 22.6811 8.66247 22.4974L1.01497 12.9974C0.782095 12.7141 0.654785 12.3587 0.654785 11.992C0.654785 11.6252 0.782095 11.2698 1.01497 10.9865L8.93164 1.48653C9.20039 1.16319 9.58659 0.959852 10.0053 0.921251C10.4239 0.882649 10.8408 1.01195 11.1641 1.2807C11.4875 1.54945 11.6908 1.93565 11.7294 2.35432C11.768 2.773 11.6387 3.18986 11.37 3.5132L4.29247 11.9999L11.1325 20.4865C11.3261 20.7189 11.4491 21.0019 11.4869 21.3021C11.5247 21.6022 11.4757 21.9069 11.3458 22.18C11.2159 22.4532 11.0104 22.6834 10.7538 22.8435C10.4971 23.0035 10.1999 23.0867 9.89747 23.0832Z"
        fill="#C9C9C9" />
</svg>