<svg width="400" height="200" viewBox="0 0 328 131" fill="none" xmlns="http://www.w3.org/2000/svg">
<path d="M110.604 37.0078L103.975 54.3203L97.2023 37.0078H89.7983V61.8603H95.8607V46.2832L101.282 61.8603H106.524L111.913 46.32V61.8603H117.971V37.0078H110.604Z" fill="#F2EEEB"/>
<path d="M122.162 42.1084V61.8606H128.225V42.1084H122.162Z" fill="#F2EEEB"/>
<path d="M150.362 44.1612C149.026 42.6514 147.223 41.8965 144.955 41.8965C143.443 41.8965 142.124 42.2417 141.004 42.923C139.883 43.6089 139.035 44.5387 138.468 45.7171V42.1082H132.406V61.8604H138.468V51.379C138.468 49.9428 138.828 48.8335 139.547 48.0555C140.266 47.273 141.244 46.8863 142.474 46.8863C143.632 46.8863 144.558 47.2546 145.259 48.0003C145.955 48.7414 146.305 49.7771 146.305 51.0982V61.8604H152.363V50.3893C152.363 47.7471 151.695 45.6711 150.362 44.1612Z" fill="#F2EEEB"/>
<path d="M156.365 42.1083V61.8605H162.427V42.1083H156.365ZM162.04 34.2645C161.381 33.6615 160.505 33.3623 159.421 33.3623C158.333 33.3623 157.457 33.6615 156.798 34.2645C156.139 34.8675 155.802 35.6271 155.802 36.5477C155.802 37.4453 156.134 38.1956 156.798 38.7986C157.457 39.3971 158.333 39.6963 159.421 39.6963C160.505 39.6963 161.381 39.3971 162.04 38.7986C162.699 38.1956 163.036 37.4453 163.036 36.5477C163.031 35.6317 162.699 34.8675 162.04 34.2645Z" fill="#F2EEEB"/>
<path d="M165.161 36.9023V38.9185H172.252V61.8607H174.732V38.9231H181.859V36.9069H165.161V36.9023Z" fill="#F2EEEB"/>
<path d="M190.434 43.3101C189.18 44.065 188.272 45.1376 187.705 46.5277V42.5276H185.188V61.8609H187.705V51.2736C187.705 49.0134 188.318 47.3747 189.545 46.3712C190.776 45.3723 192.325 44.8706 194.192 44.8706H195.008V42.1777C193.214 42.1777 191.688 42.5552 190.434 43.3101Z" fill="#F2EEEB"/>
<path d="M273.246 43.1324C271.992 43.8873 271.084 44.9598 270.517 46.35V42.3498H268V61.6831H270.517V51.0958C270.517 48.8357 271.13 47.197 272.357 46.1935C273.588 45.1946 275.137 44.6928 277.004 44.6928H277.82V42C276.026 42 274.5 42.3775 273.246 43.1324Z" fill="#F2EEEB"/>
<path d="M214.329 42.5269V47.8343C213.803 46.1588 212.858 44.8193 211.471 43.802C210.088 42.7893 208.419 42.2783 206.455 42.2783C204.684 42.2783 203.112 42.6696 201.738 43.4613C200.369 44.2531 199.3 45.3947 198.534 46.8953C197.769 48.3959 197.382 50.1543 197.382 52.1889C197.382 54.1913 197.769 55.9451 198.534 57.4411C199.3 58.9418 200.374 60.0926 201.757 60.8981C203.145 61.6991 204.707 62.1041 206.455 62.1041C208.419 62.1041 210.088 61.5932 211.471 60.5759C212.858 59.5632 213.803 58.2191 214.329 56.5435V61.8602H216.772V42.5269H214.329ZM213.384 56.2489C212.761 57.4181 211.899 58.3203 210.797 58.9556C209.696 59.5954 208.465 59.913 207.096 59.913C204.919 59.913 203.177 59.2226 201.868 57.8416C200.554 56.4607 199.899 54.5826 199.899 52.1981C199.899 49.8091 200.554 47.931 201.868 46.5501C203.172 45.1691 204.919 44.4786 207.096 44.4786C208.465 44.4786 209.7 44.7962 210.797 45.4361C211.899 46.0713 212.761 46.9735 213.384 48.1427C214.006 49.312 214.324 50.6607 214.324 52.1981C214.329 53.7264 214.011 55.0797 213.384 56.2489Z" fill="#F2EEEB"/>
<path d="M238.145 35.6689V47.8397C237.647 46.1642 236.711 44.8246 235.324 43.8073C233.941 42.7946 232.272 42.2837 230.308 42.2837C228.537 42.2837 226.965 42.675 225.592 43.4667C224.222 44.2584 223.153 45.4 222.387 46.9007C221.622 48.4013 221.235 50.1597 221.235 52.1943C221.235 54.1967 221.622 55.9505 222.387 57.4465C223.153 58.9471 224.227 60.0979 225.615 60.9035C226.998 61.7044 228.56 62.1095 230.308 62.1095C232.272 62.1095 233.941 61.5986 235.324 60.5813C236.711 59.5686 237.647 58.2244 238.145 56.5489V61.8609H240.625V35.6689H238.145ZM237.241 56.2497C236.619 57.4189 235.757 58.3211 234.655 58.9563C233.553 59.5962 232.322 59.9138 230.953 59.9138C228.777 59.9138 227.039 59.2233 225.725 57.8424C224.411 56.4614 223.757 54.5833 223.757 52.1989C223.757 49.8099 224.411 47.9318 225.725 46.5508C227.039 45.1699 228.777 44.4794 230.953 44.4794C232.322 44.4794 233.558 44.797 234.655 45.4369C235.757 46.0721 236.619 46.9743 237.241 48.1435C237.864 49.3127 238.182 50.6614 238.182 52.1989C238.187 53.7272 237.868 55.0805 237.241 56.2497Z" fill="#F2EEEB"/>
<path d="M258.85 58.7444C257.665 59.6144 256.199 60.0563 254.451 60.0563C253.244 60.0563 252.123 59.7985 251.081 59.2738C250.044 58.7582 249.196 57.948 248.546 56.8525C247.896 55.7523 247.564 54.3898 247.536 52.7649H263.561C263.658 52.2217 263.704 51.6187 263.704 50.9604C263.704 49.4 263.34 47.9638 262.621 46.6427C261.902 45.3216 260.85 44.2674 259.467 43.4711C258.084 42.6794 256.448 42.2881 254.557 42.2881C252.718 42.2881 251.077 42.6794 249.648 43.4711C248.218 44.2628 247.103 45.4044 246.301 46.9051C245.498 48.4057 245.093 50.1641 245.093 52.1987C245.093 54.2287 245.494 55.9917 246.301 57.4877C247.103 58.9884 248.223 60.1299 249.648 60.9217C251.077 61.7134 252.718 62.1093 254.557 62.1093C257.015 62.1093 259.048 61.4695 260.652 60.199C262.261 58.9239 263.238 57.2622 263.593 55.2046H260.975C260.74 56.6868 260.03 57.8698 258.85 58.7444ZM248.587 47.4666C249.237 46.3941 250.081 45.5978 251.123 45.0776C252.165 44.562 253.308 44.2951 254.562 44.2951C255.788 44.2951 256.927 44.5574 257.964 45.0776C259.006 45.5932 259.832 46.3987 260.445 47.4805C261.058 48.5668 261.316 49.9017 261.228 51.4852H247.541C247.587 49.8833 247.937 48.5392 248.587 47.4666Z" fill="#F2EEEB"/>
<path d="M119.728 29.9881C121.574 29.9881 123.07 28.4939 123.07 26.6508C123.07 24.8076 121.574 23.3135 119.728 23.3135C117.882 23.3135 116.385 24.8076 116.385 26.6508C116.385 28.4939 117.882 29.9881 119.728 29.9881Z" fill="url(#paint0_linear_1_6910)"/>
<path d="M112.536 26.909C114.382 26.909 115.878 25.4148 115.878 23.5717C115.878 21.7285 114.382 20.2344 112.536 20.2344C110.69 20.2344 109.193 21.7285 109.193 23.5717C109.193 25.4148 110.69 26.909 112.536 26.909Z" fill="url(#paint1_linear_1_6910)"/>
<path d="M104.827 25.8865C106.673 25.8865 108.17 24.3923 108.17 22.5492C108.17 20.7061 106.673 19.2119 104.827 19.2119C102.981 19.2119 101.485 20.7061 101.485 22.5492C101.485 24.3923 102.981 25.8865 104.827 25.8865Z" fill="url(#paint2_linear_1_6910)"/>
<path d="M97.1192 27.4246C98.9652 27.4246 100.462 25.9304 100.462 24.0873C100.462 22.2442 98.9652 20.75 97.1192 20.75C95.2733 20.75 93.7769 22.2442 93.7769 24.0873C93.7769 25.9304 95.2733 27.4246 97.1192 27.4246Z" fill="url(#paint3_linear_1_6910)"/>
<path d="M89.9225 30.5037C91.7684 30.5037 93.2648 29.0095 93.2648 27.1664C93.2648 25.3233 91.7684 23.8291 89.9225 23.8291C88.0765 23.8291 86.5801 25.3233 86.5801 27.1664C86.5801 29.0095 88.0765 30.5037 89.9225 30.5037Z" fill="url(#paint4_linear_1_6910)"/>
<path d="M84.2706 35.6316C86.1166 35.6316 87.613 34.1375 87.613 32.2943C87.613 30.4512 86.1166 28.957 84.2706 28.957C82.4247 28.957 80.9282 30.4512 80.9282 32.2943C80.9282 34.1375 82.4247 35.6316 84.2706 35.6316Z" fill="url(#paint5_linear_1_6910)"/>
<path d="M79.6466 42.3015C81.4925 42.3015 82.989 40.8074 82.989 38.9642C82.989 37.1211 81.4925 35.627 79.6466 35.627C77.8006 35.627 76.3042 37.1211 76.3042 38.9642C76.3042 40.8074 77.8006 42.3015 79.6466 42.3015Z" fill="url(#paint6_linear_1_6910)"/>
<path d="M77.0787 49.4871C78.9247 49.4871 80.4211 47.9929 80.4211 46.1498C80.4211 44.3067 78.9247 42.8125 77.0787 42.8125C75.2328 42.8125 73.7363 44.3067 73.7363 46.1498C73.7363 47.9929 75.2328 49.4871 77.0787 49.4871Z" fill="url(#paint7_linear_1_6910)"/>
<path d="M77.0787 57.1834C78.9247 57.1834 80.4211 55.6892 80.4211 53.8461C80.4211 52.0029 78.9247 50.5088 77.0787 50.5088C75.2328 50.5088 73.7363 52.0029 73.7363 53.8461C73.7363 55.6892 75.2328 57.1834 77.0787 57.1834Z" fill="url(#paint8_linear_1_6910)"/>
<path d="M78.6188 64.8797C80.4647 64.8797 81.9611 63.3855 81.9611 61.5424C81.9611 59.6992 80.4647 58.2051 78.6188 58.2051C76.7728 58.2051 75.2764 59.6992 75.2764 61.5424C75.2764 63.3855 76.7728 64.8797 78.6188 64.8797Z" fill="url(#paint9_linear_1_6910)"/>
<path d="M82.2145 71.5496C84.0604 71.5496 85.5568 70.0554 85.5568 68.2123C85.5568 66.3692 84.0604 64.875 82.2145 64.875C80.3685 64.875 78.8721 66.3692 78.8721 68.2123C78.8721 70.0554 80.3685 71.5496 82.2145 71.5496Z" fill="url(#paint10_linear_1_6910)"/>
<path d="M87.8712 76.6824C89.7171 76.6824 91.2136 75.1882 91.2136 73.3451C91.2136 71.502 89.7171 70.0078 87.8712 70.0078C86.0252 70.0078 84.5288 71.502 84.5288 73.3451C84.5288 75.1882 86.0252 76.6824 87.8712 76.6824Z" fill="url(#paint11_linear_1_6910)"/>
<path d="M94.5514 80.784C96.3973 80.784 97.8938 79.2898 97.8938 77.4467C97.8938 75.6035 96.3973 74.1094 94.5514 74.1094C92.7054 74.1094 91.209 75.6035 91.209 77.4467C91.209 79.2898 92.7054 80.784 94.5514 80.784Z" fill="url(#paint12_linear_1_6910)"/>
<path d="M101.743 82.326C103.589 82.326 105.086 80.8318 105.086 78.9887C105.086 77.1455 103.589 75.6514 101.743 75.6514C99.8973 75.6514 98.4009 77.1455 98.4009 78.9887C98.4009 80.8318 99.8973 82.326 101.743 82.326Z" fill="url(#paint13_linear_1_6910)"/>
<path d="M109.451 82.326C111.297 82.326 112.794 80.8318 112.794 78.9887C112.794 77.1455 111.297 75.6514 109.451 75.6514C107.605 75.6514 106.109 77.1455 106.109 78.9887C106.109 80.8318 107.605 82.326 109.451 82.326Z" fill="url(#paint14_linear_1_6910)"/>
<path d="M117.16 80.2732C119.006 80.2732 120.502 78.7791 120.502 76.9359C120.502 75.0928 119.006 73.5986 117.16 73.5986C115.314 73.5986 113.817 75.0928 113.817 76.9359C113.817 78.7791 115.314 80.2732 117.16 80.2732Z" fill="url(#paint15_linear_1_6910)"/>
<path d="M125.638 83.3482C126.773 83.3482 127.694 82.4291 127.694 81.2952C127.694 80.1614 126.773 79.2422 125.638 79.2422C124.502 79.2422 123.582 80.1614 123.582 81.2952C123.582 82.4291 124.502 83.3482 125.638 83.3482Z" fill="url(#paint16_linear_1_6910)"/>
<path d="M123.84 74.6297C125.686 74.6297 127.182 73.1355 127.182 71.2924C127.182 69.4492 125.686 67.9551 123.84 67.9551C121.994 67.9551 120.498 69.4492 120.498 71.2924C120.498 73.1355 121.994 74.6297 123.84 74.6297Z" fill="url(#paint17_linear_1_6910)"/>
<path d="M130.778 77.1939C131.914 77.1939 132.834 76.2748 132.834 75.1409C132.834 74.0071 131.914 73.0879 130.778 73.0879C129.643 73.0879 128.722 74.0071 128.722 75.1409C128.722 76.2748 129.643 77.1939 130.778 77.1939Z" fill="url(#paint18_linear_1_6910)"/>
<path d="M115.362 86.9429C116.497 86.9429 117.418 86.0238 117.418 84.8899C117.418 83.7561 116.497 82.8369 115.362 82.8369C114.226 82.8369 113.306 83.7561 113.306 84.8899C113.306 86.0238 114.226 86.9429 115.362 86.9429Z" fill="url(#paint19_linear_1_6910)"/>
<path d="M105.597 88.48C106.733 88.48 107.653 87.5609 107.653 86.427C107.653 85.2932 106.733 84.374 105.597 84.374C104.462 84.374 103.541 85.2932 103.541 86.427C103.541 87.5609 104.462 88.48 105.597 88.48Z" fill="url(#paint20_linear_1_6910)"/>
<path d="M96.3491 86.9429C97.4847 86.9429 98.4053 86.0238 98.4053 84.8899C98.4053 83.7561 97.4847 82.8369 96.3491 82.8369C95.2135 82.8369 94.293 83.7561 94.293 84.8899C94.293 86.0238 95.2135 86.9429 96.3491 86.9429Z" fill="url(#paint21_linear_1_6910)"/>
<path d="M87.6128 83.8638C88.7484 83.8638 89.6689 82.9447 89.6689 81.8108C89.6689 80.677 88.7484 79.7578 87.6128 79.7578C86.4772 79.7578 85.5566 80.677 85.5566 81.8108C85.5566 82.9447 86.4772 83.8638 87.6128 83.8638Z" fill="url(#paint22_linear_1_6910)"/>
<path d="M79.9048 77.7047C81.0404 77.7047 81.9609 76.7855 81.9609 75.6516C81.9609 74.5178 81.0404 73.5986 79.9048 73.5986C78.7692 73.5986 77.8486 74.5178 77.8486 75.6516C77.8486 76.7855 78.7692 77.7047 79.9048 77.7047Z" fill="url(#paint23_linear_1_6910)"/>
<path d="M74.2524 70.0084C75.388 70.0084 76.3086 69.0892 76.3086 67.9554C76.3086 66.8215 75.388 65.9023 74.2524 65.9023C73.1169 65.9023 72.1963 66.8215 72.1963 67.9554C72.1963 69.0892 73.1169 70.0084 74.2524 70.0084Z" fill="url(#paint24_linear_1_6910)"/>
<path d="M71.1684 61.2847C72.304 61.2847 73.2246 60.3656 73.2246 59.2317C73.2246 58.0979 72.304 57.1787 71.1684 57.1787C70.0329 57.1787 69.1123 58.0979 69.1123 59.2317C69.1123 60.3656 70.0329 61.2847 71.1684 61.2847Z" fill="url(#paint25_linear_1_6910)"/>
<path d="M70.1401 51.5357C71.2757 51.5357 72.1963 50.6165 72.1963 49.4827C72.1963 48.3489 71.2757 47.4297 70.1401 47.4297C69.0046 47.4297 68.084 48.3489 68.084 49.4827C68.084 50.6165 69.0046 51.5357 70.1401 51.5357Z" fill="url(#paint26_linear_1_6910)"/>
<path d="M71.6802 42.3013C72.8157 42.3013 73.7363 41.3822 73.7363 40.2483C73.7363 39.1145 72.8157 38.1953 71.6802 38.1953C70.5446 38.1953 69.624 39.1145 69.624 40.2483C69.624 41.3822 70.5446 42.3013 71.6802 42.3013Z" fill="url(#paint27_linear_1_6910)"/>
<path d="M76.3086 33.5787C77.4442 33.5787 78.3647 32.6595 78.3647 31.5257C78.3647 30.3918 77.4442 29.4727 76.3086 29.4727C75.173 29.4727 74.2524 30.3918 74.2524 31.5257C74.2524 32.6595 75.173 33.5787 76.3086 33.5787Z" fill="url(#paint28_linear_1_6910)"/>
<path d="M82.4727 26.9088C83.6082 26.9088 84.5288 25.9896 84.5288 24.8557C84.5288 23.7219 83.6082 22.8027 82.4727 22.8027C81.3371 22.8027 80.4165 23.7219 80.4165 24.8557C80.4165 25.9896 81.3371 26.9088 82.4727 26.9088Z" fill="url(#paint29_linear_1_6910)"/>
<path d="M90.6973 21.7808C91.8328 21.7808 92.7534 20.8617 92.7534 19.7278C92.7534 18.594 91.8328 17.6748 90.6973 17.6748C89.5617 17.6748 88.6411 18.594 88.6411 19.7278C88.6411 20.8617 89.5617 21.7808 90.6973 21.7808Z" fill="url(#paint30_linear_1_6910)"/>
<path d="M99.4336 18.7007C100.569 18.7007 101.49 17.7816 101.49 16.6477C101.49 15.5139 100.569 14.5947 99.4336 14.5947C98.298 14.5947 97.3774 15.5139 97.3774 16.6477C97.3774 17.7816 98.298 18.7007 99.4336 18.7007Z" fill="url(#paint31_linear_1_6910)"/>
<path d="M109.193 18.7007C110.329 18.7007 111.249 17.7816 111.249 16.6477C111.249 15.5139 110.329 14.5947 109.193 14.5947C108.058 14.5947 107.137 15.5139 107.137 16.6477C107.137 17.7816 108.058 18.7007 109.193 18.7007Z" fill="url(#paint32_linear_1_6910)"/>
<path d="M118.446 20.7545C119.581 20.7545 120.502 19.8353 120.502 18.7014C120.502 17.5676 119.581 16.6484 118.446 16.6484C117.31 16.6484 116.39 17.5676 116.39 18.7014C116.39 19.8353 117.31 20.7545 118.446 20.7545Z" fill="url(#paint33_linear_1_6910)"/>
<path d="M126.666 25.3707C127.802 25.3707 128.722 24.4515 128.722 23.3177C128.722 22.1838 127.802 21.2646 126.666 21.2646C125.53 21.2646 124.61 22.1838 124.61 23.3177C124.61 24.4515 125.53 25.3707 126.666 25.3707Z" fill="url(#paint34_linear_1_6910)"/>
<path d="M124.868 19.2121C125.578 19.2121 126.154 18.6371 126.154 17.9278C126.154 17.2185 125.578 16.6436 124.868 16.6436C124.157 16.6436 123.582 17.2185 123.582 17.9278C123.582 18.6371 124.157 19.2121 124.868 19.2121Z" fill="url(#paint35_linear_1_6910)"/>
<path d="M115.104 14.5949C115.814 14.5949 116.39 14.0199 116.39 13.3107C116.39 12.6014 115.814 12.0264 115.104 12.0264C114.393 12.0264 113.817 12.6014 113.817 13.3107C113.817 14.0199 114.393 14.5949 115.104 14.5949Z" fill="url(#paint36_linear_1_6910)"/>
<path d="M104.311 13.5686C105.022 13.5686 105.597 12.9936 105.597 12.2843C105.597 11.575 105.022 11 104.311 11C103.601 11 103.025 11.575 103.025 12.2843C103.025 12.9936 103.601 13.5686 104.311 13.5686Z" fill="url(#paint37_linear_1_6910)"/>
<path d="M94.0348 15.1106C94.7452 15.1106 95.321 14.5356 95.321 13.8263C95.321 13.117 94.7452 12.542 94.0348 12.542C93.3244 12.542 92.7485 13.117 92.7485 13.8263C92.7485 14.5356 93.3244 15.1106 94.0348 15.1106Z" fill="url(#paint38_linear_1_6910)"/>
<path d="M84.2706 19.2121C84.981 19.2121 85.5569 18.6371 85.5569 17.9278C85.5569 17.2185 84.981 16.6436 84.2706 16.6436C83.5602 16.6436 82.9844 17.2185 82.9844 17.9278C82.9844 18.6371 83.5602 19.2121 84.2706 19.2121Z" fill="url(#paint39_linear_1_6910)"/>
<path d="M76.0504 26.3977C76.7608 26.3977 77.3366 25.8227 77.3366 25.1134C77.3366 24.4041 76.7608 23.8291 76.0504 23.8291C75.34 23.8291 74.7642 24.4041 74.7642 25.1134C74.7642 25.8227 75.34 26.3977 76.0504 26.3977Z" fill="url(#paint40_linear_1_6910)"/>
<path d="M128.814 30.4989C127.796 28.9661 125.721 28.5472 124.186 29.5645C122.651 30.5818 122.231 32.6532 123.25 34.186C124.269 35.7189 126.343 36.1378 127.879 35.1205C129.418 34.1032 129.838 32.0364 128.814 30.4989Z" fill="url(#paint41_linear_1_6910)"/>
<path d="M133.517 27.3138C132.89 26.3702 131.613 26.1124 130.668 26.7384C129.723 27.3645 129.465 28.6395 130.091 29.5832C130.718 30.5268 131.995 30.7846 132.941 30.1586C133.89 29.5325 134.148 28.2575 133.517 27.3138Z" fill="url(#paint42_linear_1_6910)"/>
<path d="M70.3985 35.1203C71.1089 35.1203 71.6848 34.5453 71.6848 33.836C71.6848 33.1268 71.1089 32.5518 70.3985 32.5518C69.6882 32.5518 69.1123 33.1268 69.1123 33.836C69.1123 34.5453 69.6882 35.1203 70.3985 35.1203Z" fill="url(#paint43_linear_1_6910)"/>
<path d="M66.8024 45.3811C67.5127 45.3811 68.0886 44.8061 68.0886 44.0968C68.0886 43.3875 67.5127 42.8125 66.8024 42.8125C66.092 42.8125 65.5161 43.3875 65.5161 44.0968C65.5161 44.8061 66.092 45.3811 66.8024 45.3811Z" fill="url(#paint44_linear_1_6910)"/>
<path d="M66.2862 56.1574C66.9966 56.1574 67.5725 55.5824 67.5725 54.8732C67.5725 54.1639 66.9966 53.5889 66.2862 53.5889C65.5759 53.5889 65 54.1639 65 54.8732C65 55.5824 65.5759 56.1574 66.2862 56.1574Z" fill="url(#paint45_linear_1_6910)"/>
<path d="M68.3424 66.4172C69.0528 66.4172 69.6286 65.8422 69.6286 65.1329C69.6286 64.4236 69.0528 63.8486 68.3424 63.8486C67.632 63.8486 67.0562 64.4236 67.0562 65.1329C67.0562 65.8422 67.632 66.4172 68.3424 66.4172Z" fill="url(#paint46_linear_1_6910)"/>
<path d="M73.4825 75.6565C74.1929 75.6565 74.7688 75.0815 74.7688 74.3722C74.7688 73.6629 74.1929 73.0879 73.4825 73.0879C72.7722 73.0879 72.1963 73.6629 72.1963 74.3722C72.1963 75.0815 72.7722 75.6565 73.4825 75.6565Z" fill="url(#paint47_linear_1_6910)"/>
<path d="M81.191 83.3479C81.9014 83.3479 82.4773 82.7729 82.4773 82.0636C82.4773 81.3543 81.9014 80.7793 81.191 80.7793C80.4807 80.7793 79.9048 81.3543 79.9048 82.0636C79.9048 82.7729 80.4807 83.3479 81.191 83.3479Z" fill="url(#paint48_linear_1_6910)"/>
<path d="M90.4391 88.4807C91.1494 88.4807 91.7253 87.9057 91.7253 87.1964C91.7253 86.4871 91.1494 85.9121 90.4391 85.9121C89.7287 85.9121 89.1528 86.4871 89.1528 87.1964C89.1528 87.9057 89.7287 88.4807 90.4391 88.4807Z" fill="url(#paint49_linear_1_6910)"/>
<path d="M100.715 91.5598C101.425 91.5598 102.001 90.9848 102.001 90.2755C102.001 89.5662 101.425 88.9912 100.715 88.9912C100.005 88.9912 99.4287 89.5662 99.4287 90.2755C99.4287 90.9848 100.005 91.5598 100.715 91.5598Z" fill="url(#paint50_linear_1_6910)"/>
<path d="M111.507 91.0441C112.218 91.0441 112.794 90.4692 112.794 89.7599C112.794 89.0506 112.218 88.4756 111.507 88.4756C110.797 88.4756 110.221 89.0506 110.221 89.7599C110.221 90.4692 110.797 91.0441 111.507 91.0441Z" fill="url(#paint51_linear_1_6910)"/>
<path d="M121.272 87.9699C121.982 87.9699 122.558 87.3949 122.558 86.6856C122.558 85.9764 121.982 85.4014 121.272 85.4014C120.562 85.4014 119.986 85.9764 119.986 86.6856C119.986 87.3949 120.562 87.9699 121.272 87.9699Z" fill="url(#paint52_linear_1_6910)"/>
<defs>
<linearGradient id="paint0_linear_1_6910" x1="240.552" y1="151.742" x2="80.3783" y2="-14.5961" gradientUnits="userSpaceOnUse">
<stop stop-color="#4DC3FF"/>
<stop offset="0.249" stop-color="#8733FF"/>
<stop offset="0.5786" stop-color="#FF31FA"/>
<stop offset="0.7404" stop-color="#FF793E"/>
<stop offset="1" stop-color="#FFDE3E"/>
</linearGradient>
<linearGradient id="paint1_linear_1_6910" x1="238.365" y1="153.848" x2="78.1912" y2="-12.4897" gradientUnits="userSpaceOnUse">
<stop stop-color="#4DC3FF"/>
<stop offset="0.249" stop-color="#8733FF"/>
<stop offset="0.5786" stop-color="#FF31FA"/>
<stop offset="0.7404" stop-color="#FF793E"/>
<stop offset="1" stop-color="#FFDE3E"/>
</linearGradient>
<linearGradient id="paint2_linear_1_6910" x1="234.885" y1="157.199" x2="74.7109" y2="-9.13906" gradientUnits="userSpaceOnUse">
<stop stop-color="#4DC3FF"/>
<stop offset="0.249" stop-color="#8733FF"/>
<stop offset="0.5786" stop-color="#FF31FA"/>
<stop offset="0.7404" stop-color="#FF793E"/>
<stop offset="1" stop-color="#FFDE3E"/>
</linearGradient>
<linearGradient id="paint3_linear_1_6910" x1="230.121" y1="161.787" x2="69.9472" y2="-4.55116" gradientUnits="userSpaceOnUse">
<stop stop-color="#4DC3FF"/>
<stop offset="0.249" stop-color="#8733FF"/>
<stop offset="0.5786" stop-color="#FF31FA"/>
<stop offset="0.7404" stop-color="#FF793E"/>
<stop offset="1" stop-color="#FFDE3E"/>
</linearGradient>
<linearGradient id="paint4_linear_1_6910" x1="224.853" y1="166.859" x2="64.6788" y2="0.521397" gradientUnits="userSpaceOnUse">
<stop stop-color="#4DC3FF"/>
<stop offset="0.249" stop-color="#8733FF"/>
<stop offset="0.5786" stop-color="#FF31FA"/>
<stop offset="0.7404" stop-color="#FF793E"/>
<stop offset="1" stop-color="#FFDE3E"/>
</linearGradient>
<linearGradient id="paint5_linear_1_6910" x1="219.357" y1="172.152" x2="59.1828" y2="5.81402" gradientUnits="userSpaceOnUse">
<stop stop-color="#4DC3FF"/>
<stop offset="0.249" stop-color="#8733FF"/>
<stop offset="0.5786" stop-color="#FF31FA"/>
<stop offset="0.7404" stop-color="#FF793E"/>
<stop offset="1" stop-color="#FFDE3E"/>
</linearGradient>
<linearGradient id="paint6_linear_1_6910" x1="213.623" y1="177.673" x2="53.4488" y2="11.3355" gradientUnits="userSpaceOnUse">
<stop stop-color="#4DC3FF"/>
<stop offset="0.249" stop-color="#8733FF"/>
<stop offset="0.5786" stop-color="#FF31FA"/>
<stop offset="0.7404" stop-color="#FF793E"/>
<stop offset="1" stop-color="#FFDE3E"/>
</linearGradient>
<linearGradient id="paint7_linear_1_6910" x1="208.697" y1="182.417" x2="48.5225" y2="16.0792" gradientUnits="userSpaceOnUse">
<stop stop-color="#4DC3FF"/>
<stop offset="0.249" stop-color="#8733FF"/>
<stop offset="0.5786" stop-color="#FF31FA"/>
<stop offset="0.7404" stop-color="#FF793E"/>
<stop offset="1" stop-color="#FFDE3E"/>
</linearGradient>
<linearGradient id="paint8_linear_1_6910" x1="204.845" y1="186.126" x2="44.6711" y2="19.7877" gradientUnits="userSpaceOnUse">
<stop stop-color="#4DC3FF"/>
<stop offset="0.249" stop-color="#8733FF"/>
<stop offset="0.5786" stop-color="#FF31FA"/>
<stop offset="0.7404" stop-color="#FF793E"/>
<stop offset="1" stop-color="#FFDE3E"/>
</linearGradient>
<linearGradient id="paint9_linear_1_6910" x1="201.793" y1="189.065" x2="41.6186" y2="22.7271" gradientUnits="userSpaceOnUse">
<stop stop-color="#4DC3FF"/>
<stop offset="0.249" stop-color="#8733FF"/>
<stop offset="0.5786" stop-color="#FF31FA"/>
<stop offset="0.7404" stop-color="#FF793E"/>
<stop offset="1" stop-color="#FFDE3E"/>
</linearGradient>
<linearGradient id="paint10_linear_1_6910" x1="200.318" y1="190.485" x2="40.144" y2="24.1467" gradientUnits="userSpaceOnUse">
<stop stop-color="#4DC3FF"/>
<stop offset="0.249" stop-color="#8733FF"/>
<stop offset="0.5786" stop-color="#FF31FA"/>
<stop offset="0.7404" stop-color="#FF793E"/>
<stop offset="1" stop-color="#FFDE3E"/>
</linearGradient>
<linearGradient id="paint11_linear_1_6910" x1="200.679" y1="190.138" x2="40.5047" y2="23.7997" gradientUnits="userSpaceOnUse">
<stop stop-color="#4DC3FF"/>
<stop offset="0.249" stop-color="#8733FF"/>
<stop offset="0.5786" stop-color="#FF31FA"/>
<stop offset="0.7404" stop-color="#FF793E"/>
<stop offset="1" stop-color="#FFDE3E"/>
</linearGradient>
<linearGradient id="paint12_linear_1_6910" x1="202.086" y1="188.783" x2="41.9121" y2="22.4446" gradientUnits="userSpaceOnUse">
<stop stop-color="#4DC3FF"/>
<stop offset="0.249" stop-color="#8733FF"/>
<stop offset="0.5786" stop-color="#FF31FA"/>
<stop offset="0.7404" stop-color="#FF793E"/>
<stop offset="1" stop-color="#FFDE3E"/>
</linearGradient>
<linearGradient id="paint13_linear_1_6910" x1="205.043" y1="185.935" x2="44.8692" y2="19.597" gradientUnits="userSpaceOnUse">
<stop stop-color="#4DC3FF"/>
<stop offset="0.249" stop-color="#8733FF"/>
<stop offset="0.5786" stop-color="#FF31FA"/>
<stop offset="0.7404" stop-color="#FF793E"/>
<stop offset="1" stop-color="#FFDE3E"/>
</linearGradient>
<linearGradient id="paint14_linear_1_6910" x1="209.037" y1="182.089" x2="48.8625" y2="15.7515" gradientUnits="userSpaceOnUse">
<stop stop-color="#4DC3FF"/>
<stop offset="0.249" stop-color="#8733FF"/>
<stop offset="0.5786" stop-color="#FF31FA"/>
<stop offset="0.7404" stop-color="#FF793E"/>
<stop offset="1" stop-color="#FFDE3E"/>
</linearGradient>
<linearGradient id="paint15_linear_1_6910" x1="214.058" y1="177.255" x2="53.8838" y2="10.9169" gradientUnits="userSpaceOnUse">
<stop stop-color="#4DC3FF"/>
<stop offset="0.249" stop-color="#8733FF"/>
<stop offset="0.5786" stop-color="#FF31FA"/>
<stop offset="0.7404" stop-color="#FF793E"/>
<stop offset="1" stop-color="#FFDE3E"/>
</linearGradient>
<linearGradient id="paint16_linear_1_6910" x1="216.268" y1="175.127" x2="56.0938" y2="8.78846" gradientUnits="userSpaceOnUse">
<stop stop-color="#4DC3FF"/>
<stop offset="0.249" stop-color="#8733FF"/>
<stop offset="0.5786" stop-color="#FF31FA"/>
<stop offset="0.7404" stop-color="#FF793E"/>
<stop offset="1" stop-color="#FFDE3E"/>
</linearGradient>
<linearGradient id="paint17_linear_1_6910" x1="220.343" y1="171.202" x2="60.1693" y2="4.86407" gradientUnits="userSpaceOnUse">
<stop stop-color="#4DC3FF"/>
<stop offset="0.249" stop-color="#8733FF"/>
<stop offset="0.5786" stop-color="#FF31FA"/>
<stop offset="0.7404" stop-color="#FF793E"/>
<stop offset="1" stop-color="#FFDE3E"/>
</linearGradient>
<linearGradient id="paint18_linear_1_6910" x1="222.012" y1="169.596" x2="61.8379" y2="3.25767" gradientUnits="userSpaceOnUse">
<stop stop-color="#4DC3FF"/>
<stop offset="0.249" stop-color="#8733FF"/>
<stop offset="0.5786" stop-color="#FF31FA"/>
<stop offset="0.7404" stop-color="#FF793E"/>
<stop offset="1" stop-color="#FFDE3E"/>
</linearGradient>
<linearGradient id="paint19_linear_1_6910" x1="209.146" y1="181.985" x2="48.9714" y2="15.6468" gradientUnits="userSpaceOnUse">
<stop stop-color="#4DC3FF"/>
<stop offset="0.249" stop-color="#8733FF"/>
<stop offset="0.5786" stop-color="#FF31FA"/>
<stop offset="0.7404" stop-color="#FF793E"/>
<stop offset="1" stop-color="#FFDE3E"/>
</linearGradient>
<linearGradient id="paint20_linear_1_6910" x1="203.317" y1="187.597" x2="43.1431" y2="21.2588" gradientUnits="userSpaceOnUse">
<stop stop-color="#4DC3FF"/>
<stop offset="0.249" stop-color="#8733FF"/>
<stop offset="0.5786" stop-color="#FF31FA"/>
<stop offset="0.7404" stop-color="#FF793E"/>
<stop offset="1" stop-color="#FFDE3E"/>
</linearGradient>
<linearGradient id="paint21_linear_1_6910" x1="199.295" y1="191.471" x2="39.1203" y2="25.1326" gradientUnits="userSpaceOnUse">
<stop stop-color="#4DC3FF"/>
<stop offset="0.249" stop-color="#8733FF"/>
<stop offset="0.5786" stop-color="#FF31FA"/>
<stop offset="0.7404" stop-color="#FF793E"/>
<stop offset="1" stop-color="#FFDE3E"/>
</linearGradient>
<linearGradient id="paint22_linear_1_6910" x1="196.309" y1="194.346" x2="36.1347" y2="28.0079" gradientUnits="userSpaceOnUse">
<stop stop-color="#4DC3FF"/>
<stop offset="0.249" stop-color="#8733FF"/>
<stop offset="0.5786" stop-color="#FF31FA"/>
<stop offset="0.7404" stop-color="#FF793E"/>
<stop offset="1" stop-color="#FFDE3E"/>
</linearGradient>
<linearGradient id="paint23_linear_1_6910" x1="195.397" y1="195.224" x2="35.2228" y2="28.8863" gradientUnits="userSpaceOnUse">
<stop stop-color="#4DC3FF"/>
<stop offset="0.249" stop-color="#8733FF"/>
<stop offset="0.5786" stop-color="#FF31FA"/>
<stop offset="0.7404" stop-color="#FF793E"/>
<stop offset="1" stop-color="#FFDE3E"/>
</linearGradient>
<linearGradient id="paint24_linear_1_6910" x1="196.319" y1="194.336" x2="36.1453" y2="27.9978" gradientUnits="userSpaceOnUse">
<stop stop-color="#4DC3FF"/>
<stop offset="0.249" stop-color="#8733FF"/>
<stop offset="0.5786" stop-color="#FF31FA"/>
<stop offset="0.7404" stop-color="#FF793E"/>
<stop offset="1" stop-color="#FFDE3E"/>
</linearGradient>
<linearGradient id="paint25_linear_1_6910" x1="199.087" y1="191.67" x2="38.9135" y2="25.3319" gradientUnits="userSpaceOnUse">
<stop stop-color="#4DC3FF"/>
<stop offset="0.249" stop-color="#8733FF"/>
<stop offset="0.5786" stop-color="#FF31FA"/>
<stop offset="0.7404" stop-color="#FF793E"/>
<stop offset="1" stop-color="#FFDE3E"/>
</linearGradient>
<linearGradient id="paint26_linear_1_6910" x1="203.433" y1="187.485" x2="43.2591" y2="21.1475" gradientUnits="userSpaceOnUse">
<stop stop-color="#4DC3FF"/>
<stop offset="0.249" stop-color="#8733FF"/>
<stop offset="0.5786" stop-color="#FF31FA"/>
<stop offset="0.7404" stop-color="#FF793E"/>
<stop offset="1" stop-color="#FFDE3E"/>
</linearGradient>
<linearGradient id="paint27_linear_1_6910" x1="208.854" y1="182.265" x2="48.6798" y2="15.9275" gradientUnits="userSpaceOnUse">
<stop stop-color="#4DC3FF"/>
<stop offset="0.249" stop-color="#8733FF"/>
<stop offset="0.5786" stop-color="#FF31FA"/>
<stop offset="0.7404" stop-color="#FF793E"/>
<stop offset="1" stop-color="#FFDE3E"/>
</linearGradient>
<linearGradient id="paint28_linear_1_6910" x1="215.615" y1="175.755" x2="55.441" y2="9.417" gradientUnits="userSpaceOnUse">
<stop stop-color="#4DC3FF"/>
<stop offset="0.249" stop-color="#8733FF"/>
<stop offset="0.5786" stop-color="#FF31FA"/>
<stop offset="0.7404" stop-color="#FF793E"/>
<stop offset="1" stop-color="#FFDE3E"/>
</linearGradient>
<linearGradient id="paint29_linear_1_6910" x1="222.148" y1="169.464" x2="61.9743" y2="3.12608" gradientUnits="userSpaceOnUse">
<stop stop-color="#4DC3FF"/>
<stop offset="0.249" stop-color="#8733FF"/>
<stop offset="0.5786" stop-color="#FF31FA"/>
<stop offset="0.7404" stop-color="#FF793E"/>
<stop offset="1" stop-color="#FFDE3E"/>
</linearGradient>
<linearGradient id="paint30_linear_1_6910" x1="228.976" y1="162.89" x2="68.8019" y2="-3.44854" gradientUnits="userSpaceOnUse">
<stop stop-color="#4DC3FF"/>
<stop offset="0.249" stop-color="#8733FF"/>
<stop offset="0.5786" stop-color="#FF31FA"/>
<stop offset="0.7404" stop-color="#FF793E"/>
<stop offset="1" stop-color="#FFDE3E"/>
</linearGradient>
<linearGradient id="paint31_linear_1_6910" x1="235.043" y1="157.047" x2="74.8686" y2="-9.291" gradientUnits="userSpaceOnUse">
<stop stop-color="#4DC3FF"/>
<stop offset="0.249" stop-color="#8733FF"/>
<stop offset="0.5786" stop-color="#FF31FA"/>
<stop offset="0.7404" stop-color="#FF793E"/>
<stop offset="1" stop-color="#FFDE3E"/>
</linearGradient>
<linearGradient id="paint32_linear_1_6910" x1="240.101" y1="152.176" x2="79.9273" y2="-14.1622" gradientUnits="userSpaceOnUse">
<stop stop-color="#4DC3FF"/>
<stop offset="0.249" stop-color="#8733FF"/>
<stop offset="0.5786" stop-color="#FF31FA"/>
<stop offset="0.7404" stop-color="#FF793E"/>
<stop offset="1" stop-color="#FFDE3E"/>
</linearGradient>
<linearGradient id="paint33_linear_1_6910" x1="243.866" y1="148.551" x2="83.6922" y2="-17.787" gradientUnits="userSpaceOnUse">
<stop stop-color="#4DC3FF"/>
<stop offset="0.249" stop-color="#8733FF"/>
<stop offset="0.5786" stop-color="#FF31FA"/>
<stop offset="0.7404" stop-color="#FF793E"/>
<stop offset="1" stop-color="#FFDE3E"/>
</linearGradient>
<linearGradient id="paint34_linear_1_6910" x1="245.815" y1="146.673" x2="85.6414" y2="-19.6646" gradientUnits="userSpaceOnUse">
<stop stop-color="#4DC3FF"/>
<stop offset="0.249" stop-color="#8733FF"/>
<stop offset="0.5786" stop-color="#FF31FA"/>
<stop offset="0.7404" stop-color="#FF793E"/>
<stop offset="1" stop-color="#FFDE3E"/>
</linearGradient>
<linearGradient id="paint35_linear_1_6910" x1="247.58" y1="144.975" x2="87.4057" y2="-21.3632" gradientUnits="userSpaceOnUse">
<stop stop-color="#4DC3FF"/>
<stop offset="0.249" stop-color="#8733FF"/>
<stop offset="0.5786" stop-color="#FF31FA"/>
<stop offset="0.7404" stop-color="#FF793E"/>
<stop offset="1" stop-color="#FFDE3E"/>
</linearGradient>
<linearGradient id="paint36_linear_1_6910" x1="244.832" y1="147.621" x2="84.6581" y2="-18.7175" gradientUnits="userSpaceOnUse">
<stop stop-color="#4DC3FF"/>
<stop offset="0.249" stop-color="#8733FF"/>
<stop offset="0.5786" stop-color="#FF31FA"/>
<stop offset="0.7404" stop-color="#FF793E"/>
<stop offset="1" stop-color="#FFDE3E"/>
</linearGradient>
<linearGradient id="paint37_linear_1_6910" x1="239.754" y1="152.51" x2="79.5805" y2="-13.8279" gradientUnits="userSpaceOnUse">
<stop stop-color="#4DC3FF"/>
<stop offset="0.249" stop-color="#8733FF"/>
<stop offset="0.5786" stop-color="#FF31FA"/>
<stop offset="0.7404" stop-color="#FF793E"/>
<stop offset="1" stop-color="#FFDE3E"/>
</linearGradient>
<linearGradient id="paint38_linear_1_6910" x1="233.659" y1="158.38" x2="73.4851" y2="-7.9587" gradientUnits="userSpaceOnUse">
<stop stop-color="#4DC3FF"/>
<stop offset="0.249" stop-color="#8733FF"/>
<stop offset="0.5786" stop-color="#FF31FA"/>
<stop offset="0.7404" stop-color="#FF793E"/>
<stop offset="1" stop-color="#FFDE3E"/>
</linearGradient>
<linearGradient id="paint39_linear_1_6910" x1="226.546" y1="165.229" x2="66.372" y2="-1.10879" gradientUnits="userSpaceOnUse">
<stop stop-color="#4DC3FF"/>
<stop offset="0.249" stop-color="#8733FF"/>
<stop offset="0.5786" stop-color="#FF31FA"/>
<stop offset="0.7404" stop-color="#FF793E"/>
<stop offset="1" stop-color="#FFDE3E"/>
</linearGradient>
<linearGradient id="paint40_linear_1_6910" x1="218.691" y1="172.792" x2="58.5175" y2="6.45431" gradientUnits="userSpaceOnUse">
<stop stop-color="#4DC3FF"/>
<stop offset="0.249" stop-color="#8733FF"/>
<stop offset="0.5786" stop-color="#FF31FA"/>
<stop offset="0.7404" stop-color="#FF793E"/>
<stop offset="1" stop-color="#FFDE3E"/>
</linearGradient>
<linearGradient id="paint41_linear_1_6910" x1="240.969" y1="151.341" x2="80.7946" y2="-14.997" gradientUnits="userSpaceOnUse">
<stop stop-color="#4DC3FF"/>
<stop offset="0.249" stop-color="#8733FF"/>
<stop offset="0.5786" stop-color="#FF31FA"/>
<stop offset="0.7404" stop-color="#FF793E"/>
<stop offset="1" stop-color="#FFDE3E"/>
</linearGradient>
<linearGradient id="paint42_linear_1_6910" x1="245.91" y1="146.583" x2="85.736" y2="-19.755" gradientUnits="userSpaceOnUse">
<stop stop-color="#4DC3FF"/>
<stop offset="0.249" stop-color="#8733FF"/>
<stop offset="0.5786" stop-color="#FF31FA"/>
<stop offset="0.7404" stop-color="#FF793E"/>
<stop offset="1" stop-color="#FFDE3E"/>
</linearGradient>
<linearGradient id="paint43_linear_1_6910" x1="211.398" y1="179.816" x2="51.2237" y2="13.4777" gradientUnits="userSpaceOnUse">
<stop stop-color="#4DC3FF"/>
<stop offset="0.249" stop-color="#8733FF"/>
<stop offset="0.5786" stop-color="#FF31FA"/>
<stop offset="0.7404" stop-color="#FF793E"/>
<stop offset="1" stop-color="#FFDE3E"/>
</linearGradient>
<linearGradient id="paint44_linear_1_6910" x1="204.399" y1="186.556" x2="44.2246" y2="20.2175" gradientUnits="userSpaceOnUse">
<stop stop-color="#4DC3FF"/>
<stop offset="0.249" stop-color="#8733FF"/>
<stop offset="0.5786" stop-color="#FF31FA"/>
<stop offset="0.7404" stop-color="#FF793E"/>
<stop offset="1" stop-color="#FFDE3E"/>
</linearGradient>
<linearGradient id="paint45_linear_1_6910" x1="198.74" y1="192.005" x2="38.5661" y2="25.6669" gradientUnits="userSpaceOnUse">
<stop stop-color="#4DC3FF"/>
<stop offset="0.249" stop-color="#8733FF"/>
<stop offset="0.5786" stop-color="#FF31FA"/>
<stop offset="0.7404" stop-color="#FF793E"/>
<stop offset="1" stop-color="#FFDE3E"/>
</linearGradient>
<linearGradient id="paint46_linear_1_6910" x1="194.67" y1="195.923" x2="34.4965" y2="29.5852" gradientUnits="userSpaceOnUse">
<stop stop-color="#4DC3FF"/>
<stop offset="0.249" stop-color="#8733FF"/>
<stop offset="0.5786" stop-color="#FF31FA"/>
<stop offset="0.7404" stop-color="#FF793E"/>
<stop offset="1" stop-color="#FFDE3E"/>
</linearGradient>
<linearGradient id="paint47_linear_1_6910" x1="192.71" y1="197.811" x2="32.5362" y2="31.4731" gradientUnits="userSpaceOnUse">
<stop stop-color="#4DC3FF"/>
<stop offset="0.249" stop-color="#8733FF"/>
<stop offset="0.5786" stop-color="#FF31FA"/>
<stop offset="0.7404" stop-color="#FF793E"/>
<stop offset="1" stop-color="#FFDE3E"/>
</linearGradient>
<linearGradient id="paint48_linear_1_6910" x1="192.853" y1="197.674" x2="32.6786" y2="31.3357" gradientUnits="userSpaceOnUse">
<stop stop-color="#4DC3FF"/>
<stop offset="0.249" stop-color="#8733FF"/>
<stop offset="0.5786" stop-color="#FF31FA"/>
<stop offset="0.7404" stop-color="#FF793E"/>
<stop offset="1" stop-color="#FFDE3E"/>
</linearGradient>
<linearGradient id="paint49_linear_1_6910" x1="195.078" y1="195.531" x2="34.9043" y2="29.1931" gradientUnits="userSpaceOnUse">
<stop stop-color="#4DC3FF"/>
<stop offset="0.249" stop-color="#8733FF"/>
<stop offset="0.5786" stop-color="#FF31FA"/>
<stop offset="0.7404" stop-color="#FF793E"/>
<stop offset="1" stop-color="#FFDE3E"/>
</linearGradient>
<linearGradient id="paint50_linear_1_6910" x1="198.861" y1="191.887" x2="38.6882" y2="25.549" gradientUnits="userSpaceOnUse">
<stop stop-color="#4DC3FF"/>
<stop offset="0.249" stop-color="#8733FF"/>
<stop offset="0.5786" stop-color="#FF31FA"/>
<stop offset="0.7404" stop-color="#FF793E"/>
<stop offset="1" stop-color="#FFDE3E"/>
</linearGradient>
<linearGradient id="paint51_linear_1_6910" x1="204.709" y1="186.256" x2="44.536" y2="19.9178" gradientUnits="userSpaceOnUse">
<stop stop-color="#4DC3FF"/>
<stop offset="0.249" stop-color="#8733FF"/>
<stop offset="0.5786" stop-color="#FF31FA"/>
<stop offset="0.7404" stop-color="#FF793E"/>
<stop offset="1" stop-color="#FFDE3E"/>
</linearGradient>
<linearGradient id="paint52_linear_1_6910" x1="211.309" y1="179.902" x2="51.1345" y2="13.5643" gradientUnits="userSpaceOnUse">
<stop stop-color="#4DC3FF"/>
<stop offset="0.249" stop-color="#8733FF"/>
<stop offset="0.5786" stop-color="#FF31FA"/>
<stop offset="0.7404" stop-color="#FF793E"/>
<stop offset="1" stop-color="#FFDE3E"/>
</linearGradient>
</defs>
</svg>
