<svg width="23" height="15" viewBox="0 0 23 15" fill="none" xmlns="http://www.w3.org/2000/svg">
<path d="M9.34605 11.4042C8.5537 12.7574 9.0873 13.8687 10.1878 14.4927C11.2872 15.1179 12.535 15.0184 13.3296 13.6652C14.122 12.3143 19.1337 0.251969 18.6979 0.0043924C18.262 -0.243185 10.1395 10.0522 9.34605 11.4042ZM11.5 2.81253C12.0037 2.81253 12.4936 2.85435 12.9732 2.93575C13.4768 2.31511 14.0403 1.63117 14.5889 0.982265C13.585 0.696632 12.5451 0.551632 11.5 0.551549C5.05195 0.551549 0 5.89763 0 12.7224C0 13.1418 0.0184 13.5612 0.05635 13.9693C0.1127 14.5922 0.67735 15.0489 1.30295 14.9958C1.9366 14.9381 2.4035 14.391 2.34715 13.7681C2.31574 13.4204 2.30001 13.0715 2.3 12.7224C2.3 7.16491 6.3411 2.81253 11.5 2.81253ZM19.8018 4.22564C19.481 5.0735 19.1418 5.93719 18.8428 6.68332C20.01 8.34513 20.7 10.4298 20.7 12.7224C20.7 13.0796 20.6828 13.4402 20.6506 13.7884C20.6357 14.0801 20.7362 14.3661 20.931 14.5867C21.1257 14.8072 21.3997 14.9452 21.6955 14.9718C21.9914 14.9983 22.2862 14.9114 22.5184 14.7292C22.7506 14.5471 22.9021 14.2837 22.9413 13.9942C22.9793 13.5759 23 13.1486 23 12.7224C23 9.38292 21.789 6.40296 19.8018 4.22564Z" fill="#FEDE40"/>
</svg>
