<svg width="559" height="594" viewBox="0 0 559 594" fill="none" xmlns="http://www.w3.org/2000/svg">
  <g clipPath="url(#clip0_1135_2395)">
    <path d="M28.5847 530.017L21.341 525.807L21.2303 242.649L28.4741 246.86L28.5847 530.017Z" fill="#C1BAC8" />
    <path d="M248.091 439.27L157.539 491.839L195.411 513.706L285.963 461.137L248.091 439.27Z"
      fill="url(#paint0_linear_1135_2395)" />
    <path
      d="M286.47 461.806C286.388 461.62 286.295 461.457 286.19 461.335C286.121 461.253 286.039 461.183 285.963 461.137L195.411 513.706C195.493 513.752 195.568 513.822 195.638 513.904C195.743 514.026 195.836 514.189 195.918 514.375C196.541 515.791 196.489 518.761 195.784 519.168L286.336 466.605C287.046 466.186 287.093 463.222 286.47 461.806Z"
      fill="#E0DBE1" />
    <path
      d="M240.748 430.557C239.066 426.743 238.74 423.062 239.927 420.547L264.547 366.073L174 418.642L149.375 473.116C148.187 475.631 148.508 479.312 150.179 483.091C151.099 485.159 152.269 487.016 153.638 488.571C154.814 489.911 156.13 491.023 157.533 491.832L248.079 439.263C246.67 438.448 245.36 437.336 244.184 436.002C242.827 434.447 241.657 432.595 240.748 430.557Z"
      fill="url(#paint1_linear_1135_2395)" />
    <path
      d="M195.411 513.706L157.539 491.839C154.494 490.08 151.879 486.918 150.196 483.121C148.513 479.33 148.187 475.637 149.381 473.11L174.006 418.637L174.181 417.664L174.332 364.624C174.338 363.069 173.325 361.316 171.974 360.535C170.705 359.802 169.686 360.384 169.686 361.939L169.534 414.49L144.991 468.533C143.284 472.411 143.779 478.147 146.301 483.884C148.741 489.573 152.956 494.634 157.521 497.272L195.394 519.139C196.669 519.873 196.681 514.434 195.411 513.706Z"
      fill="#C1BAC8" />
    <path
      d="M264.471 310.249C264.25 309.754 263.953 309.283 263.598 308.881C263.277 308.514 262.91 308.205 262.52 307.978C261.891 307.617 261.327 307.576 260.913 307.815L170.367 360.384C170.78 360.145 171.345 360.186 171.974 360.547C172.37 360.774 172.737 361.089 173.051 361.45C173.406 361.851 173.703 362.323 173.925 362.818C174.187 363.406 174.332 364.035 174.332 364.635L174.181 417.676L174.006 418.648L264.552 366.079L264.727 365.107L264.879 312.066C264.879 311.466 264.727 310.837 264.471 310.249Z"
      fill="url(#paint2_linear_1135_2395)" />
    <path d="M28.4741 246.86L21.2303 242.65L398.078 25.0537L405.327 29.2641L28.4741 246.86Z"
      fill="url(#paint3_linear_1135_2395)" />
    <path d="M405.327 29.2637L405.438 312.415L28.5846 530.017L28.474 246.86L405.327 29.2637Z" fill="#E0DBE1" />
    <path d="M30.1277 248.171L403.615 32.5137L403.563 277.801L30.0753 493.458L30.1277 248.171Z" fill="#231C42" />
    <path
      d="M61.7869 255.001L58.1243 266.304L54.5141 259.048L50.4963 261.285L50.4323 274.783L53.7047 272.885L53.7513 264.464L56.6337 271.19L59.4694 269.548L62.4508 259.567L62.3809 267.865L65.6534 265.972L65.7815 252.771L61.7869 255.001Z"
      fill="#F2EEEB" />
    <path d="M68.0291 254.209L67.9185 264.668L71.1909 262.77L71.3132 252.363L68.0291 254.209Z" fill="#F2EEEB" />
    <path
      d="M83.3026 246.686C82.5922 246.307 81.6197 246.47 80.3911 247.157C79.5701 247.617 78.8539 248.2 78.2366 248.893C77.6252 249.597 77.1594 250.343 76.845 251.129L76.8682 249.242L73.5841 251.088L73.4502 261.46L76.7227 259.561L76.7984 254.087C76.81 253.336 77.008 252.649 77.404 252.02C77.7999 251.397 78.3298 250.89 78.9994 250.517C79.6283 250.162 80.1233 250.069 80.5017 250.244C80.8744 250.413 81.0549 250.844 81.0433 251.525L80.9559 257.11L84.2284 255.217L84.3274 249.294C84.3565 247.926 84.013 247.064 83.3026 246.686Z"
      fill="#F2EEEB" />
    <path
      d="M89.7253 238.049C89.3701 237.939 88.8984 238.043 88.3103 238.375C87.7222 238.701 87.2447 239.115 86.8779 239.633C86.511 240.14 86.3247 240.629 86.3189 241.107C86.313 241.567 86.4819 241.858 86.8371 241.963C87.1923 242.067 87.664 241.957 88.2521 241.631C88.8402 241.299 89.3177 240.885 89.6845 240.373C90.0455 239.866 90.2377 239.383 90.2435 238.923C90.2552 238.451 90.0805 238.16 89.7253 238.049ZM86.5751 243.797L86.3946 253.965L89.6671 252.067L89.8592 241.945L86.5751 243.797Z"
      fill="#F2EEEB" />
    <path
      d="M91.3965 238.462L91.379 239.493L95.2222 237.344L94.9776 249.003L96.3169 248.228L96.5672 236.599L100.434 234.438L100.457 233.419L91.3965 238.462Z"
      fill="#F2EEEB" />
    <path
      d="M105.034 234.031C104.347 234.794 103.84 235.609 103.514 236.477L103.561 234.474L102.192 235.242L101.965 244.956L103.328 244.17L103.456 238.865C103.485 237.729 103.834 236.721 104.516 235.842C105.197 234.969 106.035 234.246 107.048 233.676L107.491 233.425L107.526 232.086C106.554 232.616 105.721 233.274 105.034 234.031Z"
      fill="#F2EEEB" />
    <path
      d="M117.996 226.367L117.92 228.97C117.664 228.306 117.163 227.939 116.429 227.863C115.695 227.787 114.799 228.044 113.733 228.644C112.772 229.185 111.911 229.855 111.159 230.664C110.402 231.48 109.809 232.371 109.378 233.349C108.941 234.327 108.708 235.323 108.685 236.336C108.661 237.332 108.848 238.083 109.238 238.59C109.634 239.097 110.199 239.336 110.932 239.301C111.672 239.266 112.51 238.974 113.459 238.427C114.519 237.816 115.433 237.035 116.19 236.109C116.953 235.178 117.489 234.222 117.792 233.238L117.716 235.841L119.038 235.079L119.329 225.621L117.996 226.367ZM117.285 233.384C116.936 234.147 116.452 234.863 115.847 235.521C115.247 236.179 114.572 236.715 113.832 237.146C112.662 237.821 111.724 238.025 111.037 237.752C110.344 237.472 110.012 236.744 110.041 235.562C110.071 234.374 110.455 233.238 111.189 232.149C111.916 231.066 112.871 230.193 114.048 229.529C114.793 229.109 115.457 228.888 116.039 228.865C116.627 228.842 117.081 229.016 117.402 229.401C117.722 229.779 117.879 230.344 117.856 231.101C117.832 231.858 117.64 232.615 117.285 233.384Z"
      fill="#F2EEEB" />
    <path
      d="M131.027 215.815L130.818 221.662C130.579 221.009 130.096 220.648 129.356 220.584C128.622 220.514 127.726 220.782 126.66 221.382C125.699 221.924 124.843 222.588 124.086 223.391C123.329 224.195 122.735 225.08 122.293 226.041C121.856 227.008 121.617 227.986 121.588 228.976C121.559 229.954 121.74 230.688 122.13 231.177C122.52 231.666 123.085 231.894 123.818 231.853C124.552 231.812 125.391 231.515 126.334 230.973C127.394 230.362 128.308 229.587 129.071 228.673C129.839 227.747 130.369 226.815 130.666 225.855L130.573 228.405L131.912 227.631L132.366 215.081L131.027 215.815ZM130.189 225.983C129.828 226.74 129.35 227.444 128.745 228.091C128.139 228.743 127.464 229.279 126.724 229.704C125.548 230.379 124.616 230.589 123.929 230.327C123.242 230.065 122.916 229.355 122.951 228.196C122.986 227.031 123.376 225.919 124.104 224.847C124.837 223.776 125.792 222.908 126.969 222.244C127.708 221.825 128.372 221.603 128.96 221.574C129.542 221.545 129.997 221.714 130.317 222.087C130.637 222.454 130.783 223.013 130.753 223.746C130.742 224.48 130.55 225.226 130.189 225.983Z"
      fill="#F2EEEB" />
    <path
      d="M141.829 220.444C141.171 221.231 140.367 221.889 139.424 222.436C138.772 222.809 138.172 223.042 137.619 223.117C137.066 223.193 136.623 223.071 136.291 222.756C135.959 222.436 135.802 221.889 135.814 221.126L144.484 216.176C144.548 215.89 144.583 215.593 144.601 215.285C144.63 214.557 144.461 213.992 144.094 213.59C143.727 213.188 143.18 213.013 142.446 213.06C141.712 213.112 140.833 213.421 139.802 213.998C138.801 214.557 137.91 215.244 137.118 216.053C136.332 216.869 135.703 217.754 135.237 218.715C134.777 219.676 134.527 220.637 134.492 221.609C134.457 222.576 134.637 223.298 135.045 223.758C135.459 224.218 136.035 224.416 136.798 224.346C137.555 224.276 138.434 223.95 139.43 223.374C140.752 222.605 141.87 221.667 142.76 220.567C143.651 219.466 144.216 218.383 144.449 217.305L143.028 218.121C142.889 218.895 142.481 219.67 141.829 220.444ZM136.483 218.284C136.856 217.573 137.328 216.933 137.904 216.368C138.475 215.803 139.104 215.331 139.779 214.947C140.443 214.574 141.054 214.347 141.608 214.277C142.161 214.207 142.592 214.33 142.906 214.65C143.215 214.976 143.337 215.518 143.255 216.292L135.843 220.514C135.895 219.74 136.111 218.994 136.483 218.284Z"
      fill="#F2EEEB" />
    <path
      d="M66.4802 245.159C67.4818 244.612 68.2912 244.961 68.2795 245.934C68.2679 246.906 67.4469 248.147 66.4453 248.7C65.4438 249.253 64.6402 248.904 64.646 247.926C64.6577 246.941 65.4787 245.707 66.4802 245.159Z"
      fill="url(#paint4_linear_1135_2395)" />
    <path
      d="M62.5789 245.649C63.5804 245.108 64.3898 245.457 64.3781 246.441C64.3665 247.419 63.5513 248.66 62.5439 249.213C61.5424 249.761 60.733 249.411 60.7446 248.421C60.7563 247.431 61.5773 246.191 62.5789 245.649Z"
      fill="url(#paint5_linear_1135_2395)" />
    <path
      d="M58.3864 247.372C59.388 246.831 60.1973 247.186 60.1915 248.176C60.1857 249.16 59.3647 250.406 58.3631 250.954C57.3616 251.501 56.5522 251.14 56.558 250.15C56.5638 249.16 57.3849 247.914 58.3864 247.372Z"
      fill="url(#paint6_linear_1135_2395)" />
    <path
      d="M54.188 250.476C55.1896 249.935 55.999 250.296 55.9932 251.286C55.9873 252.276 55.1663 253.528 54.1648 254.075C53.1632 254.623 52.3538 254.262 52.3597 253.266C52.3655 252.27 53.1807 251.018 54.188 250.476Z"
      fill="url(#paint7_linear_1135_2395)" />
    <path
      d="M50.2634 254.268C51.2649 253.72 52.0743 254.087 52.0685 255.083C52.0627 256.079 51.2475 257.337 50.2459 257.89C49.2444 258.443 48.435 258.076 48.4408 257.075C48.4467 256.073 49.2619 254.815 50.2634 254.268Z"
      fill="url(#paint8_linear_1135_2395)" />
    <path
      d="M47.1772 258.746C48.1788 258.193 48.9881 258.56 48.9823 259.561C48.9765 260.563 48.1613 261.827 47.1597 262.386C46.1582 262.939 45.3488 262.578 45.3546 261.571C45.3605 260.563 46.1757 259.299 47.1772 258.746Z"
      fill="url(#paint9_linear_1135_2395)" />
    <path
      d="M44.6559 263.783C45.6574 263.23 46.4668 263.591 46.461 264.599C46.4552 265.606 45.6458 266.876 44.6442 267.435C43.6427 267.994 42.8333 267.633 42.8391 266.62C42.845 265.612 43.6544 264.343 44.6559 263.783Z"
      fill="url(#paint10_linear_1135_2395)" />
    <path
      d="M43.2526 268.5C44.2541 267.941 45.0635 268.302 45.0577 269.31C45.0577 270.317 44.2425 271.593 43.2468 272.163C42.251 272.728 41.4417 272.367 41.4417 271.354C41.4417 270.341 42.251 269.059 43.2526 268.5Z"
      fill="url(#paint11_linear_1135_2395)" />
    <path
      d="M43.241 272.722C44.2367 272.151 45.0461 272.513 45.0461 273.52C45.0461 274.527 44.2309 275.809 43.2352 276.385C42.2394 276.962 41.4301 276.601 41.4301 275.587C41.4301 274.574 42.2453 273.293 43.241 272.722Z"
      fill="url(#paint12_linear_1135_2395)" />
    <path
      d="M44.0678 276.467C45.0635 275.89 45.8729 276.246 45.867 277.253C45.8612 278.261 45.0518 279.548 44.0561 280.124C43.0604 280.701 42.2568 280.351 42.2568 279.338C42.2568 278.325 43.072 277.043 44.0678 276.467Z"
      fill="url(#paint13_linear_1135_2395)" />
    <path
      d="M46.0011 279C46.9968 278.424 47.8003 278.767 47.7945 279.769C47.7887 280.771 46.9793 282.063 45.9894 282.646C44.9995 283.228 44.1901 282.885 44.196 281.877C44.196 280.864 45.0053 279.577 46.0011 279Z"
      fill="url(#paint14_linear_1135_2395)" />
    <path
      d="M49.0406 280.014C50.0363 279.431 50.8399 279.769 50.834 280.771C50.8282 281.772 50.0188 283.059 49.0289 283.648C48.0332 284.236 47.2355 283.898 47.2355 282.89C47.2355 281.889 48.0449 280.602 49.0406 280.014Z"
      fill="url(#paint15_linear_1135_2395)" />
    <path
      d="M52.6333 280.124C53.6291 279.536 54.4268 279.868 54.421 280.864C54.4152 281.859 53.6058 283.146 52.6101 283.735C51.6143 284.329 50.8166 283.997 50.8224 282.995C50.8282 281.993 51.6434 280.712 52.6333 280.124Z"
      fill="url(#paint16_linear_1135_2395)" />
    <path
      d="M56.5055 278.669C57.5013 278.081 58.299 278.407 58.2932 279.397C58.2874 280.387 57.478 281.668 56.4822 282.262C55.4924 282.856 54.6888 282.53 54.6946 281.534C54.7004 280.538 55.5098 279.257 56.5055 278.669Z"
      fill="url(#paint17_linear_1135_2395)" />
    <path
      d="M60.6572 276.211C61.653 275.622 62.4507 275.943 62.4391 276.927C62.4274 277.911 61.618 279.186 60.6281 279.78C59.6382 280.374 58.8347 280.054 58.8463 279.064C58.8521 278.08 59.6673 276.799 60.6572 276.211Z"
      fill="url(#paint18_linear_1135_2395)" />
    <path
      d="M64.8265 272.67C65.8222 272.082 66.62 272.402 66.6083 273.38C66.5967 274.359 65.7873 275.628 64.7916 276.222C63.7959 276.816 62.9981 276.496 63.0098 275.512C63.0156 274.522 63.8308 273.252 64.8265 272.67Z"
      fill="url(#paint19_linear_1135_2395)" />
    <path
      d="M69.3626 272.955C69.974 272.594 70.4631 272.781 70.4573 273.38C70.4514 273.98 69.9507 274.76 69.3393 275.122C68.7279 275.488 68.2387 275.296 68.2446 274.696C68.2504 274.097 68.7512 273.316 69.3626 272.955Z"
      fill="url(#paint20_linear_1135_2395)" />
    <path
      d="M68.46 267.557C69.4557 266.975 70.2535 267.289 70.2418 268.262C70.2302 269.234 69.415 270.498 68.4193 271.086C67.4235 271.674 66.6258 271.354 66.6375 270.381C66.6491 269.409 67.4643 268.139 68.46 267.557Z"
      fill="url(#paint21_linear_1135_2395)" />
    <path
      d="M72.1692 268.069C72.7806 267.708 73.2697 267.9 73.2639 268.494C73.2581 269.088 72.7573 269.863 72.1459 270.23C71.5345 270.591 71.0454 270.404 71.0512 269.804C71.057 269.205 71.5578 268.43 72.1692 268.069Z"
      fill="url(#paint22_linear_1135_2395)" />
    <path
      d="M63.8075 278.156C64.4189 277.789 64.9081 277.981 64.9022 278.587C64.8964 279.187 64.3957 279.973 63.7901 280.34C63.1787 280.707 62.6895 280.514 62.6954 279.909C62.7012 279.309 63.1961 278.523 63.8075 278.156Z"
      fill="url(#paint23_linear_1135_2395)" />
    <path
      d="M58.5494 282.122C59.1608 281.755 59.6499 281.953 59.6441 282.559C59.6382 283.164 59.1433 283.956 58.5319 284.323C57.9205 284.69 57.4314 284.498 57.4372 283.887C57.443 283.281 57.938 282.489 58.5494 282.122Z"
      fill="url(#paint24_linear_1135_2395)" />
    <path
      d="M53.5767 284.271C54.1881 283.904 54.6772 284.108 54.6772 284.719C54.6772 285.33 54.1764 286.122 53.565 286.489C52.9536 286.856 52.4645 286.658 52.4645 286.041C52.4703 285.429 52.9653 284.637 53.5767 284.271Z"
      fill="url(#paint25_linear_1135_2395)" />
    <path
      d="M48.8834 285.406C49.4948 285.045 49.9898 285.249 49.9839 285.86C49.9839 286.478 49.4832 287.27 48.8718 287.637C48.2604 288.003 47.7712 287.8 47.7712 287.182C47.7712 286.565 48.272 285.767 48.8834 285.406Z"
      fill="url(#paint26_linear_1135_2395)" />
    <path
      d="M44.7374 284.504C45.3488 284.143 45.8438 284.352 45.8438 284.976C45.8438 285.599 45.343 286.391 44.7316 286.752C44.1202 287.113 43.6252 286.903 43.6252 286.28C43.6311 285.663 44.126 284.865 44.7374 284.504Z"
      fill="url(#paint27_linear_1135_2395)" />
    <path
      d="M41.6979 282.064C42.3093 281.708 42.8042 281.924 42.8042 282.547C42.8042 283.17 42.3035 283.962 41.692 284.323C41.0806 284.684 40.5857 284.469 40.5857 283.84C40.5915 283.217 41.0865 282.425 41.6979 282.064Z"
      fill="url(#paint28_linear_1135_2395)" />
    <path
      d="M40.0384 278.225C40.6498 277.87 41.1506 278.091 41.1447 278.715C41.1389 279.338 40.644 280.13 40.0326 280.485C39.4211 280.84 38.9204 280.619 38.9262 279.996C38.9262 279.367 39.427 278.575 40.0384 278.225Z"
      fill="url(#paint29_linear_1135_2395)" />
    <path
      d="M39.491 273.165C40.1082 272.816 40.6031 273.043 40.6031 273.666C40.6031 274.289 40.1024 275.081 39.491 275.431C38.8796 275.78 38.3788 275.559 38.3788 274.93C38.3788 274.301 38.8737 273.515 39.491 273.165Z"
      fill="url(#paint30_linear_1135_2395)" />
    <path
      d="M40.3295 267.598C40.9468 267.254 41.4417 267.481 41.4417 268.104C41.4417 268.728 40.941 269.514 40.3237 269.857C39.7065 270.201 39.2115 269.974 39.2115 269.351C39.2174 268.728 39.7181 267.941 40.3295 267.598Z"
      fill="url(#paint31_linear_1135_2395)" />
    <path
      d="M42.8508 261.407C43.468 261.07 43.963 261.297 43.963 261.92C43.963 262.543 43.4622 263.323 42.845 263.661C42.2277 264.005 41.7328 263.772 41.7328 263.149C41.7328 262.525 42.2336 261.751 42.8508 261.407Z"
      fill="url(#paint32_linear_1135_2395)" />
    <path
      d="M46.2106 255.916C46.8278 255.578 47.3286 255.811 47.3228 256.428C47.3228 257.046 46.8162 257.82 46.2048 258.158C45.5875 258.496 45.0868 258.269 45.0926 257.645C45.0926 257.028 45.5934 256.254 46.2106 255.916Z"
      fill="url(#paint33_linear_1135_2395)" />
    <path
      d="M50.7002 250.698C51.3174 250.366 51.8182 250.593 51.8123 251.204C51.8065 251.816 51.3057 252.59 50.6885 252.922C50.0713 253.254 49.5705 253.033 49.5763 252.416C49.5763 251.798 50.0829 251.03 50.7002 250.698Z"
      fill="url(#paint34_linear_1135_2395)" />
    <path
      d="M55.4691 246.47C56.0863 246.138 56.5871 246.365 56.5813 246.971C56.5754 247.583 56.0747 248.345 55.4574 248.677C54.8402 249.009 54.3394 248.788 54.3453 248.177C54.3453 247.565 54.8519 246.802 55.4691 246.47Z"
      fill="url(#paint35_linear_1135_2395)" />
    <path
      d="M60.7854 243.61C61.4026 243.278 61.8976 243.5 61.8976 244.105C61.8918 244.711 61.3852 245.474 60.7679 245.806C60.1507 246.138 59.6558 245.916 59.6558 245.311C59.6558 244.705 60.1682 243.942 60.7854 243.61Z"
      fill="url(#paint36_linear_1135_2395)" />
    <path
      d="M65.8163 241.998C66.4336 241.666 66.9285 241.881 66.9227 242.481C66.9169 243.081 66.4103 243.838 65.7931 244.176C65.1758 244.513 64.6809 244.292 64.6867 243.692C64.6925 243.087 65.1991 242.33 65.8163 241.998Z"
      fill="url(#paint37_linear_1135_2395)" />
    <path
      d="M70.2709 242.02C70.8882 241.683 71.3831 241.898 71.3773 242.492C71.3715 243.086 70.8649 243.843 70.2476 244.181C69.6304 244.519 69.1355 244.303 69.1413 243.709C69.1471 243.115 69.6479 242.352 70.2709 242.02Z"
      fill="url(#paint38_linear_1135_2395)" />
    <path
      d="M69.3159 240.111C69.7003 239.901 70.0147 240.035 70.0089 240.413C70.0031 240.786 69.6886 241.264 69.2985 241.468C68.9142 241.677 68.5997 241.543 68.6055 241.165C68.6114 240.792 68.9316 240.32 69.3159 240.111Z"
      fill="url(#paint39_linear_1135_2395)" />
    <path
      d="M64.0172 240.518C64.4015 240.309 64.7159 240.449 64.7101 240.827C64.7043 241.206 64.3898 241.677 64.0055 241.887C63.6212 242.097 63.3068 241.957 63.3126 241.578C63.3184 241.2 63.6328 240.722 64.0172 240.518Z"
      fill="url(#paint40_linear_1135_2395)" />
    <path
      d="M58.1418 243.11C58.5261 242.906 58.8405 243.046 58.8347 243.425C58.8347 243.803 58.5145 244.281 58.1301 244.49C57.7458 244.7 57.4314 244.554 57.4372 244.176C57.4372 243.792 57.7517 243.314 58.1418 243.11Z"
      fill="url(#paint41_linear_1135_2395)" />
    <path
      d="M52.5343 246.936C52.9186 246.726 53.233 246.872 53.233 247.256C53.233 247.641 52.9128 248.118 52.5285 248.328C52.1441 248.537 51.8297 248.392 51.8297 248.007C51.8297 247.623 52.1441 247.14 52.5343 246.936Z"
      fill="url(#paint42_linear_1135_2395)" />
    <path
      d="M47.2005 252.026C47.5849 251.816 47.8993 251.962 47.8993 252.346C47.8993 252.73 47.5849 253.214 47.1947 253.423C46.8104 253.633 46.496 253.487 46.496 253.103C46.5018 252.719 46.8162 252.235 47.2005 252.026Z"
      fill="url(#paint43_linear_1135_2395)" />
    <path
      d="M42.7169 258.385C43.1012 258.175 43.4156 258.321 43.4156 258.711C43.4156 259.101 43.1012 259.585 42.7169 259.8C42.3326 260.01 42.0181 259.864 42.0181 259.474C42.0123 259.078 42.3268 258.595 42.7169 258.385Z"
      fill="url(#paint44_linear_1135_2395)" />
    <path
      d="M71.3773 246.249C70.8358 245.742 69.7061 246.144 68.8676 247.14C68.0291 248.135 67.7904 249.358 68.3319 249.865C68.8734 250.372 69.9973 249.964 70.8416 248.962C71.6801 247.972 71.9247 246.755 71.3773 246.249Z"
      fill="url(#paint45_linear_1135_2395)" />
    <path
      d="M73.9569 243.168C73.625 242.859 72.932 243.104 72.4138 243.715C71.8956 244.327 71.75 245.072 72.0819 245.381C72.4138 245.689 73.1067 245.445 73.625 244.833C74.1432 244.222 74.2888 243.476 73.9569 243.168Z"
      fill="url(#paint46_linear_1135_2395)" />
    <path
      d="M39.6366 264.872C40.0209 264.657 40.3354 264.802 40.3354 265.193C40.3354 265.583 40.0209 266.072 39.6366 266.287C39.2523 266.503 38.9379 266.357 38.9379 265.967C38.9379 265.577 39.2523 265.088 39.6366 264.872Z"
      fill="url(#paint47_linear_1135_2395)" />
    <path
      d="M37.6801 271.633C38.0644 271.418 38.3788 271.557 38.3788 271.953C38.3788 272.35 38.0644 272.839 37.6801 273.054C37.2958 273.27 36.9813 273.13 36.9813 272.734C36.9813 272.344 37.2958 271.849 37.6801 271.633Z"
      fill="url(#paint48_linear_1135_2395)" />
    <path
      d="M37.4006 277.754C37.7849 277.533 38.0935 277.673 38.0935 278.069C38.0935 278.459 37.7791 278.96 37.4006 279.175C37.0163 279.397 36.7076 279.257 36.7076 278.861C36.7076 278.465 37.0163 277.97 37.4006 277.754Z"
      fill="url(#paint49_linear_1135_2395)" />
    <path
      d="M38.5069 282.785C38.8912 282.564 39.1998 282.698 39.1998 283.088C39.1998 283.478 38.8912 283.979 38.5069 284.2C38.1226 284.422 37.814 284.288 37.814 283.898C37.814 283.507 38.1226 283.012 38.5069 282.785Z"
      fill="url(#paint50_linear_1135_2395)" />
    <path
      d="M41.2786 286.262C41.6629 286.035 41.9715 286.169 41.9715 286.559C41.9715 286.949 41.6629 287.45 41.2786 287.677C40.8943 287.904 40.5857 287.77 40.5857 287.38C40.5857 286.984 40.8943 286.483 41.2786 286.262Z"
      fill="url(#paint51_linear_1135_2395)" />
    <path
      d="M45.4246 288.02C45.8089 287.793 46.1175 287.921 46.1117 288.312C46.1117 288.702 45.7972 289.197 45.4188 289.43C45.0403 289.663 44.7258 289.529 44.7316 289.138C44.7316 288.748 45.0403 288.253 45.4246 288.02Z"
      fill="url(#paint52_linear_1135_2395)" />
    <path
      d="M50.3915 287.84C50.7758 287.613 51.0786 287.736 51.0786 288.12C51.0786 288.504 50.7642 289.005 50.3857 289.232C50.0014 289.465 49.6986 289.337 49.6986 288.953C49.6986 288.568 50.0072 288.073 50.3915 287.84Z"
      fill="url(#paint53_linear_1135_2395)" />
    <path
      d="M55.9058 286.18C56.2901 285.947 56.5929 286.075 56.5929 286.454C56.5929 286.832 56.2785 287.333 55.9 287.56C55.5215 287.787 55.2129 287.671 55.2129 287.287C55.2129 286.908 55.5273 286.413 55.9058 286.18Z"
      fill="url(#paint54_linear_1135_2395)" />
    <path
      d="M61.7112 282.413C62.0955 282.18 62.3983 282.303 62.3983 282.681C62.3925 283.06 62.0839 283.555 61.6996 283.782C61.3152 284.015 61.0125 283.892 61.0125 283.514C61.0183 283.135 61.3269 282.64 61.7112 282.413Z"
      fill="url(#paint55_linear_1135_2395)" />
    <path
      d="M66.9751 277.614C67.3594 277.387 67.6622 277.503 67.6622 277.876C67.6564 278.249 67.3478 278.744 66.9635 278.971C66.5792 279.198 66.2764 279.082 66.2764 278.709C66.2822 278.336 66.5966 277.841 66.9751 277.614Z"
      fill="url(#paint56_linear_1135_2395)" />
    <path d="M510.745 261.413L137.712 476.808V246.156L510.745 30.7666V261.413Z" fill="url(#paint57_linear_1135_2395)" />
    <path d="M137.718 229.745V268.203L510.745 52.8141V14.3555L137.718 229.745Z" fill="#5F5C77" />
    <path
      d="M331.097 249.37L322.683 245.649L310.035 249.917L295.967 258.757L282.493 262.199L266.078 278.22L246.991 286.798L224.374 316.049L203.039 331.336L184.639 350.594L168.731 363.476L156.101 391.936L156.957 391.953L169.365 363.983L184.959 351.34L203.249 332.18L224.625 316.859L247.247 287.671L266.072 279.21C266.2 279.151 282.522 263.224 282.522 263.224L295.74 259.852C295.827 259.829 309.936 250.96 309.936 250.96L322.17 246.831L330.678 250.593L347.139 241.112V240.116L331.097 249.37Z"
      fill="#D27FB5" />
    <path
      d="M324.179 270.352L309.36 276.251C309.249 276.298 295.833 287.817 295.833 287.817L279.191 297.425L262.841 315.449L244.417 327.906L224.433 348.748L198.777 370.418L181.89 391.248L168.038 402.767L156.456 415.882L156.939 416.47L168.346 403.53L182.217 392L199.109 371.163L224.77 349.482L244.597 328.779L263.039 316.317L279.314 298.351L295.897 288.772L309.29 277.288L324.086 271.388L347.145 258.076V257.08L324.179 270.352Z"
      fill="#8466AD" />
    <path
      d="M324.156 303.255L309.191 307.879L295.699 324.226L275.936 340.584L263.044 341.277L245.529 356.29L231.205 379.217L201.333 396.467L176.265 421.851L165.557 436.148L157.032 441.069V442.065L165.895 436.946L176.76 422.416L201.438 397.398L231.624 379.969L246.053 356.872L262.934 342.407L275.808 341.714L296.02 324.989L309.354 308.863L323.964 304.344L347.145 290.973V289.978L324.156 303.255Z"
      fill="#87D6F7" />
    <path
      d="M157.405 444.225V317.977L154.639 319.572V320.9L156.077 320.067V339.786L154.639 340.613V341.94L156.077 341.113V360.826L154.639 361.659V362.981L156.077 362.154V381.866L154.639 382.699V384.027L156.077 383.194V402.907L154.639 403.74V405.067L156.077 404.235V423.953L154.639 424.78V426.108L156.077 425.281V446.321L177.477 433.964V435.67L178.804 434.901V433.195L198.515 421.816V423.522L199.842 422.754V421.047L219.559 409.668V411.369L220.881 410.606V408.899L240.597 397.52V399.221L241.925 398.458V396.751L261.635 385.372V387.073L262.963 386.31V384.604L282.673 373.224V374.925L284.001 374.156V372.456L303.717 361.071V362.777L305.045 362.008V360.308L324.756 348.923V350.629L326.083 349.86V348.16L345.794 336.775V338.481L347.121 337.712V334.684L157.405 444.225Z"
      fill="#D0E8F8" />
    <path
      d="M164.981 302.044L166.361 301.246C166.547 301.333 166.547 301.741 166.547 301.741C166.547 301.863 166.489 301.962 166.361 302.032L164.981 302.83V304.228C164.981 304.356 164.917 304.455 164.789 304.531L164.358 304.781C164.171 304.694 164.171 303.296 164.171 303.296L162.78 304.1C162.593 304.024 162.593 303.616 162.593 303.616C162.593 303.488 162.657 303.389 162.78 303.319L164.171 302.516V301.124C164.171 300.996 164.23 300.897 164.358 300.827L164.789 300.576C164.917 300.501 164.981 300.53 164.981 300.658V302.044Z"
      fill="#D0E8F8" />
    <path
      d="M167.723 303.791V302.906C167.723 302.51 167.892 302.073 168.236 301.608L170.058 299.069C170.367 298.649 170.518 298.277 170.518 297.95V297.63C170.518 297.164 170.28 297.077 169.796 297.351L169.325 297.624C169.08 297.764 168.905 297.921 168.795 298.096C168.684 298.271 168.632 298.475 168.632 298.725V299.08C168.632 299.197 168.579 299.284 168.469 299.348L167.851 299.703C167.688 299.622 167.688 299.249 167.688 299.249C167.688 298.777 167.822 298.341 168.084 297.927C168.346 297.519 168.719 297.176 169.196 296.902L169.948 296.465C170.419 296.192 170.786 296.11 171.048 296.215C171.31 296.32 171.444 296.605 171.444 297.077V297.473C171.444 297.974 171.246 298.498 170.856 299.045L169.004 301.631C168.859 301.835 168.783 302.027 168.783 302.19V302.499L171.293 301.049C171.467 301.113 171.467 301.625 171.467 301.625C171.467 301.736 171.409 301.823 171.293 301.887L167.91 303.844C167.782 303.92 167.723 303.902 167.723 303.791Z"
      fill="#D0E8F8" />
    <path
      d="M173.366 299.353V300.105C173.366 300.262 173.308 300.489 173.185 300.792L172.673 302.026C172.393 302.12 172.393 299.918 172.393 299.918C172.393 299.819 172.446 299.732 172.556 299.668L173.214 299.289C173.313 299.231 173.366 299.254 173.366 299.353Z"
      fill="#D0E8F8" />
    <path
      d="M176.871 298.672L175.904 299.232C175.427 299.505 175.06 299.587 174.792 299.476C174.53 299.365 174.396 299.074 174.396 298.603V295.388C174.396 294.91 174.53 294.468 174.792 294.054C175.054 293.641 175.427 293.297 175.904 293.024L176.871 292.465C177.343 292.197 177.71 292.115 177.972 292.22C178.234 292.331 178.368 292.622 178.368 293.099V296.314C178.368 296.786 178.234 297.228 177.972 297.642C177.704 298.061 177.337 298.405 176.871 298.672ZM176.05 298.329L176.737 297.933C177.203 297.665 177.43 297.292 177.43 296.815V293.682C177.43 293.204 177.197 293.099 176.737 293.367L176.05 293.763C175.59 294.031 175.357 294.404 175.357 294.881V298.014C175.351 298.492 175.584 298.597 176.05 298.329Z"
      fill="#D0E8F8" />
    <path
      d="M179.206 292.633V292.062C179.206 291.957 179.253 291.858 179.34 291.754L180.342 290.566C180.464 290.426 180.569 290.333 180.65 290.28L181.232 289.948C181.395 290.018 181.395 295.894 181.395 295.894C181.395 296.005 181.343 296.086 181.238 296.144L180.609 296.506C180.446 296.436 180.446 291.398 180.446 291.398L179.392 292.615C179.27 292.755 179.206 292.761 179.206 292.633Z"
      fill="#D0E8F8" />
    <path
      d="M184.749 290.84L184.15 291.183C184.027 291.253 183.923 291.335 183.847 291.428C183.765 291.521 183.713 291.597 183.69 291.667C183.62 291.859 183.532 291.981 183.428 292.039L182.822 292.389C182.659 292.319 182.659 289.291 182.659 289.291C182.659 289.18 182.711 289.098 182.822 289.034L186.095 287.147C186.269 287.212 186.269 287.759 186.269 287.759C186.269 287.87 186.211 287.957 186.095 288.021L183.602 289.459V291.218C183.713 290.84 183.981 290.525 184.412 290.275L184.982 289.949C185.448 289.681 185.798 289.599 186.042 289.698C186.287 289.797 186.409 290.083 186.409 290.554V291.672C186.409 292.144 186.275 292.587 186.013 293C185.751 293.414 185.384 293.757 184.913 294.031L184.091 294.503C183.614 294.776 183.247 294.858 182.985 294.747C182.723 294.637 182.595 294.345 182.595 293.874C182.595 293.507 182.647 293.419 182.758 293.355L183.364 293.006C183.527 293.798 183.76 293.897 184.225 293.629L184.773 293.315C185.25 293.041 185.489 292.668 185.489 292.196V291.224C185.489 290.933 185.431 290.764 185.32 290.706C185.209 290.636 185.023 290.682 184.749 290.84Z"
      fill="#D0E8F8" />
    <path d="M157.492 304.286L153.975 312.404L161.004 308.345L157.492 304.286Z" fill="#6EB044" />
    <path
      d="M205.316 278.756L206.696 277.958C206.882 278.045 206.882 278.453 206.882 278.453C206.882 278.575 206.824 278.674 206.696 278.744L205.316 279.542V280.94C205.316 281.068 205.252 281.173 205.124 281.243L204.693 281.493C204.507 281.406 204.507 280.008 204.507 280.008L203.115 280.812C202.934 280.736 202.934 280.328 202.934 280.328C202.934 280.2 202.993 280.101 203.115 280.031L204.507 279.228V277.836C204.507 277.708 204.565 277.609 204.693 277.539L205.124 277.288C205.252 277.213 205.316 277.242 205.316 277.37V278.756Z"
      fill="#D0E8F8" />
    <path
      d="M210.219 276.136L209.619 276.479C209.497 276.549 209.398 276.63 209.316 276.724C209.235 276.817 209.182 276.893 209.159 276.962C209.089 277.155 209.002 277.277 208.897 277.335L208.292 277.685C208.128 277.615 208.128 274.586 208.128 274.586C208.128 274.476 208.181 274.394 208.292 274.33L211.564 272.443C211.739 272.507 211.739 273.055 211.739 273.055C211.739 273.165 211.68 273.253 211.564 273.323L209.072 274.761V276.52C209.182 276.141 209.45 275.827 209.881 275.576L210.452 275.25C210.918 274.982 211.267 274.901 211.512 275C211.756 275.099 211.878 275.384 211.878 275.856V276.974C211.878 277.446 211.745 277.888 211.482 278.302C211.22 278.721 210.854 279.059 210.382 279.333L209.561 279.804C209.083 280.078 208.717 280.16 208.455 280.049C208.193 279.938 208.064 279.647 208.064 279.175C208.064 278.809 208.117 278.721 208.227 278.657L208.833 278.308C208.996 279.1 209.229 279.199 209.689 278.931L210.236 278.611C210.714 278.337 210.953 277.964 210.953 277.492V276.52C210.953 276.229 210.894 276.06 210.784 276.002C210.679 275.932 210.487 275.978 210.219 276.136Z"
      fill="#D0E8F8" />
    <path
      d="M213.794 276.007V276.758C213.794 276.916 213.73 277.143 213.614 277.446L213.101 278.674C212.822 278.768 212.822 276.566 212.822 276.566C212.822 276.461 212.874 276.38 212.985 276.316L213.643 275.937C213.748 275.885 213.794 275.908 213.794 276.007Z"
      fill="#D0E8F8" />
    <path
      d="M218.196 274.813L217.626 275.139C217.463 275.069 217.463 274.056 217.463 274.056L214.918 275.524C214.732 275.634 214.638 275.594 214.638 275.407V275.104C214.638 274.965 214.668 274.819 214.726 274.679L216.88 269.607C216.933 269.479 216.979 269.391 217.026 269.327C217.23 269.164 218.08 268.675 218.08 268.675C218.266 268.565 218.359 268.605 218.359 268.792V272.711L219.064 272.303C219.227 272.373 219.227 272.857 219.227 272.857C219.227 272.979 219.174 273.072 219.064 273.136L218.359 273.544V274.557C218.348 274.668 218.295 274.749 218.196 274.813ZM217.463 273.223V269.805L215.564 274.318L217.463 273.223Z"
      fill="#D0E8F8" />
    <path
      d="M222.074 269.293L221.475 269.636C221.352 269.706 221.253 269.788 221.172 269.881C221.09 269.974 221.038 270.056 221.015 270.12C220.945 270.312 220.857 270.434 220.753 270.492L220.147 270.842C219.984 270.772 219.984 267.744 219.984 267.744C219.984 267.633 220.036 267.551 220.147 267.487L223.419 265.601C223.594 265.665 223.594 266.212 223.594 266.212C223.594 266.323 223.536 266.41 223.419 266.474L220.927 267.913V269.665C221.038 269.287 221.306 268.972 221.737 268.728L222.307 268.402C222.773 268.134 223.123 268.052 223.367 268.151C223.612 268.25 223.734 268.536 223.734 269.007V270.125C223.734 270.597 223.6 271.04 223.338 271.453C223.076 271.867 222.709 272.21 222.237 272.484L221.416 272.956C220.939 273.229 220.572 273.311 220.31 273.2C220.048 273.09 219.92 272.799 219.92 272.327C219.92 271.96 219.972 271.873 220.083 271.808L220.689 271.459C220.852 272.251 221.085 272.35 221.55 272.082L222.098 271.768C222.575 271.494 222.814 271.121 222.814 270.65V269.677C222.814 269.386 222.756 269.217 222.645 269.159C222.534 269.083 222.348 269.135 222.074 269.293Z"
      fill="#D0E8F8" />
    <path
      d="M227.292 269.555L226.267 270.143C225.789 270.417 225.423 270.51 225.155 270.417C224.893 270.323 224.759 270.044 224.759 269.572V269.048C224.759 268.454 224.98 267.942 225.423 267.505C224.98 267.581 224.759 267.318 224.759 266.719V266.229C224.759 265.764 224.893 265.338 225.155 264.937C225.417 264.541 225.789 264.203 226.267 263.929L227.292 263.341C227.769 263.067 228.136 262.974 228.398 263.067C228.66 263.16 228.788 263.44 228.788 263.9V264.389C228.788 264.686 228.73 264.972 228.608 265.245C228.491 265.519 228.328 265.752 228.13 265.938C228.567 265.857 228.788 266.119 228.788 266.724V267.237C228.788 267.709 228.66 268.14 228.398 268.536C228.136 268.949 227.769 269.281 227.292 269.555ZM226.395 266.573L227.158 266.13C227.618 265.863 227.851 265.49 227.851 265.006V264.535C227.851 264.296 227.793 264.156 227.682 264.11C227.571 264.069 227.397 264.116 227.158 264.249L226.395 264.692C226.156 264.832 225.982 264.983 225.871 265.158C225.76 265.333 225.702 265.536 225.702 265.775V266.247C225.702 266.73 225.935 266.841 226.395 266.573ZM226.395 269.258L227.158 268.815C227.397 268.675 227.571 268.524 227.682 268.349C227.793 268.175 227.851 267.965 227.851 267.732V267.208C227.851 266.724 227.618 266.62 227.158 266.888L226.395 267.33C225.935 267.598 225.702 267.971 225.702 268.454V268.972C225.702 269.211 225.76 269.351 225.871 269.397C225.982 269.438 226.156 269.392 226.395 269.258Z"
      fill="#D0E8F8" />
    <path d="M197.822 280.992L194.311 289.116L201.339 285.057L197.822 280.992Z" fill="#6EB044" />
    <path
      d="M245.052 256.614L243.142 257.715C242.979 257.634 242.979 257.208 242.979 257.208C242.979 257.092 243.031 257.005 243.142 256.94L245.052 255.84C245.215 255.916 245.215 256.341 245.215 256.341C245.215 256.457 245.162 256.55 245.052 256.614Z"
      fill="#D0E8F8" />
    <path
      d="M245.873 254.14V253.569C245.873 253.464 245.919 253.365 246.006 253.26L247.008 252.072C247.13 251.933 247.235 251.839 247.317 251.787L247.893 251.449C248.056 251.519 248.056 257.395 248.056 257.395C248.056 257.506 248.004 257.587 247.905 257.645L247.276 258.007C247.113 257.937 247.113 252.899 247.113 252.899L246.059 254.116C245.937 254.256 245.873 254.262 245.873 254.14Z"
      fill="#D0E8F8" />
    <path
      d="M250.205 254.984V255.735C250.205 255.893 250.147 256.12 250.024 256.423L249.512 257.657C249.232 257.75 249.232 255.549 249.232 255.549C249.232 255.45 249.285 255.363 249.395 255.299L250.053 254.92C250.152 254.862 250.205 254.885 250.205 254.984Z"
      fill="#D0E8F8" />
    <path
      d="M253.705 254.309L252.738 254.868C252.26 255.142 251.894 255.223 251.632 255.113C251.37 255.002 251.236 254.711 251.236 254.245V251.03C251.236 250.553 251.37 250.11 251.632 249.697C251.894 249.289 252.266 248.94 252.738 248.666L253.705 248.107C254.176 247.833 254.543 247.752 254.805 247.862C255.067 247.973 255.201 248.264 255.201 248.742V251.956C255.201 252.428 255.067 252.87 254.805 253.284C254.543 253.692 254.176 254.035 253.705 254.309ZM252.889 253.959L253.576 253.563C254.042 253.296 254.269 252.923 254.269 252.445V249.312C254.269 248.835 254.036 248.73 253.576 248.998L252.889 249.394C252.423 249.662 252.196 250.034 252.196 250.512V253.645C252.191 254.123 252.423 254.227 252.889 253.959Z"
      fill="#D0E8F8" />
    <path
      d="M258.8 251.368L257.833 251.921C257.355 252.195 256.989 252.276 256.727 252.166C256.465 252.055 256.331 251.764 256.331 251.298V248.083C256.331 247.606 256.465 247.163 256.727 246.75C256.989 246.336 257.361 245.993 257.833 245.719L258.8 245.16C259.271 244.892 259.638 244.81 259.9 244.915C260.162 245.026 260.296 245.317 260.296 245.795V249.009C260.296 249.481 260.162 249.924 259.9 250.337C259.638 250.75 259.271 251.094 258.8 251.368ZM257.978 251.018L258.666 250.622C259.126 250.354 259.359 249.982 259.359 249.504V246.371C259.359 245.894 259.126 245.789 258.666 246.057L257.978 246.453C257.513 246.721 257.286 247.093 257.286 247.571V250.704C257.286 251.181 257.518 251.286 257.978 251.018Z"
      fill="#D0E8F8" />
    <path
      d="M262.998 245.439L263.528 245.131C264.005 244.857 264.244 244.484 264.244 244.013V243.512C264.244 243.046 264.005 242.953 263.528 243.232L262.957 243.558C262.718 243.698 262.544 243.85 262.433 244.024C262.322 244.199 262.264 244.409 262.264 244.653V244.933C262.264 245.043 262.212 245.131 262.101 245.195L261.484 245.55C261.321 245.48 261.321 245.183 261.321 245.183C261.321 244.711 261.455 244.275 261.717 243.861C261.979 243.454 262.351 243.11 262.829 242.836L263.667 242.353C264.145 242.079 264.512 241.992 264.78 242.097C265.042 242.202 265.176 242.493 265.176 242.959V243.489C265.176 244.053 264.919 244.56 264.407 245.014C264.925 244.84 265.176 245.049 265.176 245.649V246.208C265.176 246.68 265.042 247.117 264.78 247.524C264.518 247.932 264.145 248.275 263.667 248.549L262.829 249.033C262.351 249.306 261.985 249.394 261.717 249.283C261.455 249.178 261.321 248.893 261.321 248.421V248.083C261.321 247.967 261.373 247.879 261.484 247.815L262.101 247.46C262.264 247.536 262.264 247.856 262.264 247.856C262.264 248.095 262.322 248.235 262.433 248.287C262.544 248.334 262.718 248.287 262.957 248.153L263.528 247.827C264.005 247.553 264.244 247.186 264.244 246.721V246.191C264.244 245.719 264.005 245.626 263.528 245.899L262.998 246.208C262.835 246.138 262.835 245.707 262.835 245.707C262.835 245.591 262.887 245.503 262.998 245.439Z"
      fill="#D0E8F8" />
    <path d="M238.157 263.795L234.64 259.736L241.674 255.671L238.157 263.795Z" fill="#DC3F3F" />
    <path
      d="M285.987 232.173L287.367 231.375C287.553 231.462 287.553 231.87 287.553 231.87C287.553 231.992 287.495 232.091 287.367 232.161L285.987 232.959V234.357C285.987 234.485 285.923 234.59 285.795 234.66L285.364 234.91C285.177 234.823 285.177 233.425 285.177 233.425L283.786 234.229C283.599 234.153 283.599 233.745 283.599 233.745C283.599 233.617 283.663 233.518 283.786 233.448L285.177 232.645V231.253C285.177 231.125 285.236 231.026 285.364 230.956L285.795 230.705C285.923 230.63 285.987 230.659 285.987 230.787V232.173Z"
      fill="#D0E8F8" />
    <path
      d="M288.496 229.529V228.959C288.496 228.854 288.543 228.755 288.63 228.65L289.632 227.462C289.754 227.322 289.859 227.229 289.941 227.177L290.517 226.839C290.68 226.909 290.68 232.785 290.68 232.785C290.68 232.895 290.628 232.977 290.529 233.035L289.9 233.396C289.737 233.326 289.737 228.289 289.737 228.289L288.683 229.506C288.56 229.646 288.496 229.652 288.496 229.529Z"
      fill="#D0E8F8" />
    <path
      d="M292.829 230.38V231.131C292.829 231.288 292.765 231.515 292.648 231.818L292.136 233.053C291.856 233.146 291.856 230.945 291.856 230.945C291.856 230.846 291.909 230.758 292.019 230.694L292.677 230.316C292.776 230.252 292.829 230.275 292.829 230.38Z"
      fill="#D0E8F8" />
    <path
      d="M295.432 226.711L295.961 226.408C296.439 226.134 296.678 225.762 296.678 225.29V224.789C296.678 224.323 296.439 224.23 295.961 224.51L295.391 224.836C295.152 224.976 294.977 225.127 294.867 225.302C294.756 225.476 294.698 225.686 294.698 225.931V226.21C294.698 226.321 294.645 226.408 294.535 226.472L293.918 226.827C293.755 226.758 293.755 226.461 293.755 226.461C293.755 225.989 293.888 225.552 294.15 225.139C294.413 224.731 294.785 224.387 295.257 224.114L296.095 223.63C296.573 223.357 296.94 223.269 297.208 223.374C297.47 223.479 297.603 223.77 297.603 224.236V224.766C297.603 225.331 297.347 225.837 296.829 226.292C297.341 226.117 297.603 226.327 297.603 226.926V227.485C297.603 227.957 297.47 228.394 297.208 228.802C296.945 229.209 296.573 229.553 296.095 229.827L295.257 230.31C294.779 230.584 294.413 230.671 294.15 230.566C293.888 230.461 293.755 230.176 293.755 229.704V229.366C293.755 229.25 293.807 229.163 293.918 229.099L294.535 228.743C294.698 228.819 294.698 229.139 294.698 229.139C294.698 229.378 294.756 229.518 294.867 229.57C294.977 229.617 295.152 229.57 295.391 229.436L295.961 229.11C296.439 228.837 296.678 228.47 296.678 228.004V227.474C296.678 227.002 296.439 226.903 295.961 227.183L295.432 227.491C295.268 227.421 295.268 226.99 295.268 226.99C295.268 226.862 295.321 226.775 295.432 226.711Z"
      fill="#D0E8F8" />
    <path
      d="M301.249 226.856L300.224 227.445C299.746 227.718 299.379 227.812 299.117 227.718C298.855 227.625 298.721 227.346 298.721 226.874V226.35C298.721 225.756 298.943 225.243 299.385 224.807C298.943 224.882 298.721 224.62 298.721 224.02V223.531C298.721 223.065 298.855 222.64 299.117 222.244C299.379 221.848 299.752 221.51 300.224 221.237L301.249 220.649C301.726 220.375 302.093 220.282 302.355 220.375C302.617 220.468 302.745 220.748 302.745 221.213V221.703C302.745 222 302.687 222.285 302.565 222.559C302.448 222.832 302.285 223.065 302.087 223.252C302.524 223.17 302.745 223.432 302.745 224.038V224.55C302.745 225.022 302.617 225.453 302.355 225.849C302.093 226.245 301.726 226.583 301.249 226.856ZM300.352 223.869L301.115 223.426C301.58 223.159 301.808 222.786 301.808 222.302V221.831C301.808 221.592 301.749 221.452 301.639 221.406C301.528 221.365 301.353 221.411 301.115 221.545L300.352 221.988C300.113 222.128 299.938 222.279 299.828 222.454C299.717 222.629 299.659 222.838 299.659 223.071V223.543C299.659 224.032 299.886 224.137 300.352 223.869ZM300.352 226.554L301.115 226.111C301.353 225.971 301.528 225.82 301.639 225.645C301.749 225.47 301.808 225.261 301.808 225.028V224.51C301.808 224.026 301.575 223.921 301.115 224.189L300.352 224.632C299.892 224.9 299.659 225.272 299.659 225.756V226.28C299.659 226.519 299.717 226.658 299.828 226.705C299.938 226.734 300.113 226.693 300.352 226.554Z"
      fill="#D0E8F8" />
    <path
      d="M306.256 223.962L305.33 224.498C304.853 224.772 304.486 224.853 304.224 224.743C303.962 224.632 303.828 224.341 303.828 223.869V220.654C303.828 220.177 303.962 219.734 304.224 219.321C304.486 218.907 304.859 218.564 305.33 218.29L307.252 217.184C307.415 217.253 307.415 217.754 307.415 217.754C307.415 217.859 307.363 217.941 307.252 218.005L305.464 219.035C305.004 219.303 304.771 219.676 304.771 220.154V220.981L306.256 220.124C306.734 219.851 307.101 219.769 307.368 219.874C307.63 219.985 307.764 220.276 307.764 220.748V221.598C307.764 222.07 307.63 222.512 307.368 222.926C307.101 223.345 306.734 223.688 306.256 223.962ZM305.464 223.601L306.122 223.223C306.588 222.955 306.815 222.582 306.815 222.104V221.336C306.815 220.858 306.582 220.753 306.122 221.021L304.771 221.802V223.287C304.771 223.764 305.004 223.869 305.464 223.601Z"
      fill="#D0E8F8" />
    <path d="M278.493 234.415L274.976 242.533L282.01 238.474L278.493 234.415Z" fill="#6EB044" />
    <path
      d="M325.722 210.032L323.812 211.133C323.649 211.051 323.649 210.626 323.649 210.626C323.649 210.51 323.702 210.423 323.812 210.358L325.722 209.258C325.885 209.334 325.885 209.759 325.885 209.759C325.885 209.881 325.833 209.968 325.722 210.032Z"
      fill="#D0E8F8" />
    <path
      d="M328.407 207.674L328.937 207.365C329.414 207.091 329.653 206.719 329.653 206.247V205.746C329.653 205.28 329.414 205.187 328.937 205.467L328.366 205.793C328.127 205.933 327.953 206.084 327.842 206.259C327.731 206.433 327.673 206.643 327.673 206.888V207.167C327.673 207.278 327.621 207.365 327.51 207.429L326.893 207.784C326.73 207.715 326.73 207.418 326.73 207.418C326.73 206.946 326.864 206.509 327.126 206.096C327.388 205.688 327.76 205.344 328.238 205.071L329.076 204.587C329.554 204.314 329.921 204.226 330.183 204.331C330.445 204.436 330.579 204.727 330.579 205.193V205.723C330.579 206.288 330.322 206.794 329.804 207.249C330.317 207.074 330.579 207.284 330.579 207.883V208.443C330.579 208.914 330.445 209.351 330.183 209.759C329.921 210.166 329.548 210.51 329.076 210.784L328.238 211.267C327.76 211.541 327.394 211.628 327.126 211.523C326.864 211.418 326.73 211.133 326.73 210.661V210.324C326.73 210.207 326.782 210.12 326.893 210.056L327.51 209.7C327.673 209.776 327.673 210.096 327.673 210.096C327.673 210.335 327.731 210.475 327.842 210.527C327.953 210.574 328.127 210.527 328.366 210.393L328.937 210.067C329.414 209.794 329.653 209.427 329.653 208.961V208.431C329.653 207.959 329.414 207.866 328.937 208.14L328.407 208.448C328.244 208.378 328.244 207.947 328.244 207.947C328.238 207.825 328.296 207.738 328.407 207.674Z"
      fill="#D0E8F8" />
    <path
      d="M332.582 207.423V208.174C332.582 208.331 332.518 208.558 332.401 208.861L331.889 210.096C331.609 210.189 331.609 207.988 331.609 207.988C331.609 207.889 331.662 207.801 331.772 207.737L332.43 207.359C332.529 207.295 332.582 207.318 332.582 207.423Z"
      fill="#D0E8F8" />
    <path
      d="M335.947 206.817L333.991 207.947C333.805 207.889 333.805 207.388 333.805 207.388C333.805 207.289 333.863 207.196 333.991 207.126L335.813 206.072C336.279 205.804 336.506 205.431 336.506 204.954V204.173L335.022 205.03C334.544 205.303 334.177 205.391 333.909 205.28C333.647 205.169 333.513 204.884 333.513 204.412V203.504C333.513 203.026 333.647 202.584 333.909 202.17C334.171 201.757 334.544 201.413 335.022 201.139L335.947 200.604C336.425 200.33 336.792 200.243 337.06 200.353C337.322 200.464 337.456 200.755 337.456 201.233V204.447C337.456 204.919 337.322 205.361 337.06 205.775C336.792 206.2 336.425 206.544 335.947 206.817ZM335.167 204.121L336.518 203.341V201.815C336.518 201.337 336.285 201.238 335.813 201.506L335.167 201.879C334.701 202.147 334.474 202.52 334.474 202.997V203.824C334.474 204.29 334.701 204.389 335.167 204.121Z"
      fill="#D0E8F8" />
    <path
      d="M340.687 200.801L340.087 201.145C339.965 201.215 339.866 201.297 339.785 201.39C339.703 201.483 339.651 201.559 339.627 201.628C339.558 201.821 339.47 201.943 339.365 202.001L338.76 202.351C338.597 202.281 338.597 199.252 338.597 199.252C338.597 199.142 338.649 199.06 338.76 198.996L342.032 197.109C342.207 197.173 342.207 197.721 342.207 197.721C342.207 197.831 342.149 197.919 342.032 197.983L339.54 199.421V201.18C339.651 200.801 339.919 200.487 340.349 200.242L340.92 199.916C341.386 199.648 341.735 199.567 341.98 199.666C342.224 199.765 342.347 200.05 342.347 200.522V201.64C342.347 202.112 342.213 202.554 341.951 202.968C341.689 203.387 341.322 203.731 340.85 203.999L340.029 204.47C339.552 204.744 339.185 204.826 338.923 204.715C338.661 204.604 338.533 204.313 338.533 203.841C338.533 203.475 338.591 203.387 338.696 203.323L339.301 202.974C339.464 203.766 339.697 203.865 340.163 203.597L340.71 203.282C341.188 203.009 341.427 202.636 341.427 202.164V201.192C341.427 200.901 341.368 200.732 341.258 200.673C341.147 200.598 340.955 200.644 340.687 200.801Z"
      fill="#D0E8F8" />
    <path
      d="M344.95 198.117L345.479 197.809C345.957 197.535 346.196 197.162 346.196 196.69V196.19C346.196 195.724 345.957 195.631 345.479 195.91L344.909 196.236C344.67 196.376 344.495 196.527 344.385 196.702C344.274 196.877 344.216 197.086 344.216 197.331V197.611C344.216 197.721 344.163 197.809 344.053 197.873L343.436 198.228C343.273 198.158 343.273 197.861 343.273 197.861C343.273 197.389 343.407 196.952 343.669 196.539C343.931 196.131 344.303 195.788 344.781 195.514L345.619 195.031C346.097 194.757 346.464 194.67 346.731 194.774C346.993 194.879 347.127 195.17 347.127 195.636V196.166C347.127 196.731 346.871 197.238 346.353 197.692C346.865 197.517 347.127 197.727 347.127 198.327V198.886C347.127 199.358 346.993 199.794 346.731 200.202C346.469 200.61 346.097 200.953 345.619 201.227L344.781 201.71C344.303 201.984 343.936 202.071 343.669 201.967C343.407 201.862 343.273 201.576 343.273 201.105V200.767C343.273 200.65 343.325 200.563 343.436 200.499L344.053 200.144C344.216 200.219 344.216 200.54 344.216 200.54C344.216 200.778 344.274 200.918 344.385 200.971C344.495 201.017 344.67 200.971 344.909 200.837L345.479 200.511C345.957 200.237 346.196 199.864 346.196 199.404V198.874C346.196 198.403 345.957 198.309 345.479 198.583L344.95 198.892C344.787 198.822 344.787 198.391 344.787 198.391C344.787 198.269 344.839 198.181 344.95 198.117Z"
      fill="#D0E8F8" />
    <path d="M318.828 217.219L315.311 213.154L322.345 209.095L318.828 217.219Z" fill="#DC3F3F" />
    <path opacity="0.7" d="M188.919 280.782L142.999 307.296V294.054L188.919 267.539V280.782Z" fill="#7A88C4" />
    <path opacity="0.5" d="M234.896 254.232L188.977 280.746V267.504L234.896 240.989V254.232Z" fill="#7A88C4" />
    <path opacity="0.7" d="M280.874 227.683L234.955 254.198V240.955L280.874 214.44V227.683Z" fill="#7A88C4" />
    <path opacity="0.5" d="M326.858 201.133L280.938 227.648V214.405L326.858 187.891V201.133Z" fill="#7A88C4" />
    <path d="M366.413 172.173L338.055 188.549V181.281L366.413 164.905V172.173Z" fill="#B562A7" />
    <path d="M403.033 151.029L374.676 167.404V160.142L403.033 143.761V151.029Z" fill="#724FA0" />
    <path d="M439.653 129.883L411.29 146.259V138.997L439.653 122.615V129.883Z" fill="#7A88C4" />
    <path
      d="M342.358 192.323L342.952 191.98C343.488 191.671 343.756 191.258 343.756 190.728V190.163C343.756 189.644 343.488 189.54 342.952 189.848L342.312 190.215C342.044 190.367 341.852 190.541 341.724 190.739C341.596 190.937 341.537 191.17 341.537 191.444V191.758C341.537 191.881 341.473 191.98 341.351 192.05L340.658 192.451C340.478 192.376 340.478 192.038 340.478 192.038C340.478 191.514 340.623 191.019 340.92 190.559C341.217 190.099 341.63 189.714 342.166 189.411L343.11 188.87C343.639 188.561 344.059 188.468 344.356 188.585C344.653 188.701 344.798 189.027 344.798 189.551V190.145C344.798 190.78 344.507 191.351 343.931 191.857C344.507 191.659 344.798 191.898 344.798 192.568V193.197C344.798 193.721 344.653 194.216 344.356 194.676C344.059 195.136 343.645 195.52 343.11 195.829L342.166 196.371C341.63 196.679 341.217 196.772 340.92 196.656C340.623 196.54 340.478 196.213 340.478 195.689V195.311C340.478 195.183 340.536 195.084 340.658 195.008L341.351 194.606C341.537 194.693 341.537 195.049 341.537 195.049C341.537 195.317 341.601 195.474 341.724 195.526C341.852 195.579 342.044 195.532 342.312 195.375L342.952 195.008C343.488 194.699 343.756 194.286 343.756 193.768V193.173C343.756 192.649 343.488 192.539 342.952 192.847L342.358 193.191C342.172 193.115 342.172 192.626 342.172 192.626C342.178 192.498 342.236 192.393 342.358 192.323Z"
      fill="#B562A7" />
    <path
      d="M347.04 192.044V193.366C347.04 193.488 346.982 193.581 346.865 193.651L346.132 194.076C345.945 194 345.945 192.679 345.945 192.679C345.945 192.562 346.009 192.469 346.132 192.399L346.865 191.974C346.982 191.904 347.04 191.927 347.04 192.044Z"
      fill="#B562A7" />
    <path
      d="M351.029 191.246L349.882 191.91C349.346 192.218 348.932 192.323 348.641 192.218C348.344 192.113 348.199 191.799 348.199 191.275V190.692C348.199 190.029 348.449 189.452 348.944 188.963C348.443 189.05 348.199 188.753 348.199 188.083V187.53C348.199 187.012 348.344 186.529 348.641 186.086C348.938 185.643 349.352 185.265 349.882 184.956L351.029 184.292C351.564 183.984 351.972 183.885 352.269 183.99C352.56 184.094 352.706 184.409 352.706 184.927V185.48C352.706 185.812 352.642 186.133 352.508 186.441C352.374 186.75 352.193 187.006 351.972 187.216C352.461 187.128 352.706 187.42 352.706 188.101V188.672C352.706 189.196 352.56 189.685 352.269 190.128C351.978 190.57 351.564 190.937 351.029 191.246ZM350.027 187.897L350.883 187.402C351.401 187.099 351.663 186.68 351.663 186.144V185.614C351.663 185.346 351.599 185.189 351.471 185.137C351.343 185.09 351.145 185.137 350.883 185.294L350.027 185.789C349.759 185.946 349.561 186.121 349.439 186.313C349.311 186.511 349.253 186.738 349.253 187.006V187.536C349.247 188.078 349.509 188.2 350.027 187.897ZM350.027 190.908L350.883 190.413C351.151 190.261 351.343 190.087 351.471 189.889C351.599 189.691 351.663 189.464 351.663 189.196V188.613C351.663 188.072 351.401 187.95 350.883 188.252L350.027 188.747C349.509 189.044 349.247 189.469 349.247 190.005V190.588C349.247 190.855 349.311 191.013 349.433 191.065C349.561 191.112 349.759 191.059 350.027 190.908Z"
      fill="#B562A7" />
    <path
      d="M356.793 187.915L355.646 188.579C355.111 188.887 354.697 188.986 354.4 188.887C354.103 188.782 353.958 188.468 353.958 187.944V187.361C353.958 186.698 354.208 186.121 354.703 185.632C354.202 185.719 353.958 185.428 353.958 184.752V184.199C353.958 183.681 354.103 183.198 354.4 182.755C354.697 182.312 355.111 181.934 355.646 181.625L356.793 180.961C357.329 180.653 357.737 180.554 358.034 180.658C358.325 180.763 358.47 181.078 358.47 181.596V182.149C358.47 182.481 358.406 182.802 358.272 183.11C358.139 183.419 357.958 183.675 357.737 183.885C358.226 183.797 358.47 184.089 358.47 184.77V185.341C358.47 185.865 358.325 186.354 358.034 186.797C357.743 187.233 357.329 187.606 356.793 187.915ZM355.786 184.572L356.642 184.077C357.16 183.774 357.422 183.355 357.422 182.819V182.289C357.422 182.021 357.358 181.864 357.23 181.812C357.102 181.765 356.91 181.812 356.642 181.969L355.786 182.464C355.518 182.615 355.326 182.79 355.198 182.988C355.07 183.186 355.012 183.413 355.012 183.681V184.211C355.012 184.752 355.268 184.869 355.786 184.572ZM355.786 187.577L356.642 187.082C356.91 186.93 357.102 186.756 357.23 186.558C357.358 186.36 357.422 186.133 357.422 185.865V185.282C357.422 184.741 357.16 184.619 356.642 184.921L355.786 185.416C355.268 185.713 355.006 186.138 355.006 186.674V187.257C355.006 187.524 355.07 187.682 355.192 187.734C355.326 187.781 355.524 187.734 355.786 187.577Z"
      fill="#B562A7" />
    <path
      d="M362.343 184.712L360.147 185.981C360.008 186.063 359.944 186.039 359.944 185.917V185.352C359.944 185.236 360.013 185.143 360.147 185.061L362.191 183.879C362.709 183.576 362.971 183.163 362.971 182.627V181.753L361.306 182.714C360.77 183.023 360.357 183.116 360.06 182.994C359.763 182.871 359.617 182.551 359.617 182.021V181.002C359.617 180.472 359.763 179.971 360.06 179.505C360.357 179.045 360.77 178.661 361.306 178.352L362.343 177.752C362.878 177.444 363.292 177.351 363.589 177.473C363.886 177.595 364.031 177.921 364.031 178.457V182.056C364.031 182.58 363.886 183.081 363.589 183.547C363.292 184.019 362.872 184.403 362.343 184.712ZM361.463 181.695L362.977 180.821V179.115C362.977 178.579 362.715 178.469 362.185 178.772L361.463 179.191C360.945 179.494 360.683 179.907 360.683 180.443V181.363C360.689 181.881 360.945 181.992 361.463 181.695Z"
      fill="#B562A7" />
    <path
      d="M381.069 170.222L380.4 170.607C380.26 170.688 380.149 170.776 380.062 170.881C379.969 170.985 379.91 171.073 379.881 171.143C379.8 171.352 379.707 171.492 379.59 171.562L378.909 171.952C378.722 171.876 378.723 168.481 378.723 168.481C378.723 168.359 378.781 168.26 378.909 168.19L382.577 166.07C382.769 166.14 382.769 166.757 382.769 166.757C382.769 166.88 382.705 166.979 382.577 167.054L379.788 168.668V170.636C379.91 170.211 380.213 169.861 380.696 169.582L381.337 169.215C381.855 168.912 382.251 168.819 382.525 168.935C382.799 169.046 382.932 169.366 382.932 169.891V171.143C382.932 171.667 382.787 172.168 382.49 172.633C382.193 173.099 381.785 173.484 381.255 173.787L380.335 174.316C379.8 174.625 379.392 174.712 379.095 174.59C378.804 174.462 378.658 174.136 378.658 173.612V173.332C378.658 173.204 378.723 173.099 378.845 173.029L379.526 172.639C379.712 173.524 379.969 173.635 380.487 173.338L381.104 172.983C381.64 172.674 381.908 172.255 381.908 171.731V170.636C381.908 170.31 381.844 170.118 381.715 170.054C381.587 169.99 381.372 170.048 381.069 170.222Z"
      fill="#724FA0" />
    <path
      d="M385.081 170.077V171.399C385.081 171.522 385.023 171.615 384.906 171.685L384.173 172.11C383.986 172.034 383.986 170.712 383.986 170.712C383.986 170.596 384.051 170.503 384.173 170.433L384.906 170.008C385.023 169.938 385.081 169.967 385.081 170.077Z"
      fill="#724FA0" />
    <path
      d="M385.914 165.844V165.203C385.914 165.087 385.966 164.97 386.065 164.854L387.189 163.526C387.329 163.369 387.439 163.264 387.533 163.206L388.185 162.833C388.365 162.909 388.365 169.495 388.365 169.495C388.365 169.617 388.307 169.711 388.191 169.78L387.486 170.188C387.3 170.112 387.3 164.464 387.3 164.464L386.123 165.826C385.99 165.978 385.914 165.984 385.914 165.844Z"
      fill="#724FA0" />
    <path
      d="M392.133 163.834L391.463 164.218C391.323 164.3 391.213 164.387 391.125 164.492C391.032 164.597 390.974 164.684 390.945 164.76C390.863 164.97 390.77 165.109 390.654 165.179L389.972 165.575C389.786 165.499 389.786 162.104 389.786 162.104C389.786 161.982 389.844 161.883 389.972 161.813L393.641 159.699C393.833 159.769 393.833 160.386 393.833 160.386C393.833 160.509 393.769 160.608 393.641 160.683L390.852 162.297V164.265C390.974 163.84 391.277 163.49 391.76 163.211L392.401 162.844C392.919 162.541 393.315 162.448 393.588 162.564C393.862 162.675 394.002 162.995 394.002 163.519V164.772C394.002 165.296 393.856 165.796 393.559 166.262C393.262 166.728 392.855 167.113 392.325 167.415L391.405 167.945C390.875 168.254 390.461 168.341 390.164 168.219C389.873 168.091 389.728 167.765 389.728 167.241V166.961C389.728 166.833 389.792 166.734 389.914 166.658L390.595 166.262C390.782 167.148 391.038 167.258 391.556 166.961L392.173 166.606C392.703 166.297 392.971 165.878 392.971 165.354V164.259C392.971 163.933 392.907 163.741 392.785 163.677C392.651 163.607 392.435 163.659 392.133 163.834Z"
      fill="#724FA0" />
    <path
      d="M397.763 164.259L395.568 165.529C395.428 165.611 395.364 165.587 395.364 165.465V164.906C395.364 164.789 395.434 164.69 395.568 164.615L397.612 163.433C398.13 163.13 398.392 162.716 398.392 162.18V161.307L396.727 162.268C396.191 162.577 395.778 162.67 395.481 162.547C395.184 162.425 395.038 162.105 395.038 161.575V160.556C395.038 160.026 395.184 159.525 395.481 159.059C395.778 158.599 396.191 158.215 396.727 157.906L397.763 157.306C398.299 156.998 398.713 156.904 399.01 157.027C399.307 157.149 399.452 157.475 399.452 158.011V161.61C399.452 162.134 399.307 162.635 399.01 163.101C398.713 163.567 398.299 163.951 397.763 164.259ZM396.89 161.237L398.404 160.364V158.657C398.404 158.121 398.142 158.011 397.612 158.314L396.89 158.733C396.372 159.036 396.11 159.449 396.11 159.985V160.905C396.11 161.423 396.372 161.54 396.89 161.237Z"
      fill="#724FA0" />
    <path
      d="M417.835 152.671L417.194 153.038C417.008 152.962 417.008 151.826 417.008 151.826L414.155 153.475C413.945 153.597 413.84 153.55 413.84 153.341V153.003C413.84 152.846 413.875 152.683 413.939 152.525L416.35 146.842C416.408 146.702 416.461 146.597 416.513 146.533C416.566 146.469 416.641 146.405 416.74 146.347L417.689 145.799C417.899 145.677 418.004 145.723 418.004 145.933V150.324L418.796 149.87C418.982 149.945 418.982 150.487 418.982 150.487C418.982 150.627 418.918 150.726 418.796 150.802L418.004 151.256V152.391C418.01 152.508 417.951 152.607 417.835 152.671ZM417.008 150.895V147.069L414.877 152.123L417.008 150.895Z"
      fill="#7A88C4" />
    <path
      d="M420.816 149.444V150.766C420.816 150.888 420.758 150.982 420.642 151.051L419.908 151.477C419.722 151.401 419.722 150.079 419.722 150.079C419.722 149.962 419.786 149.869 419.908 149.799L420.642 149.374C420.758 149.304 420.816 149.328 420.816 149.444Z"
      fill="#7A88C4" />
    <path
      d="M425.748 148.099L425.114 148.466C424.927 148.39 424.927 147.254 424.927 147.254L422.074 148.902C421.864 149.025 421.76 148.978 421.76 148.768V148.431C421.76 148.273 421.795 148.11 421.859 147.953L424.269 142.269C424.328 142.13 424.38 142.025 424.432 141.961C424.485 141.897 424.56 141.833 424.659 141.774L425.609 141.227C425.818 141.105 425.923 141.151 425.923 141.361V145.752L426.715 145.298C426.901 145.373 426.901 145.915 426.901 145.915C426.901 146.049 426.837 146.154 426.715 146.229L425.923 146.684V147.819C425.923 147.941 425.865 148.035 425.748 148.099ZM424.927 146.328V142.502L422.796 147.557L424.927 146.328Z"
      fill="#7A88C4" />
    <path
      d="M429.498 142.008L430.092 141.664C430.628 141.356 430.896 140.942 430.896 140.412V139.847C430.896 139.329 430.628 139.224 430.092 139.533L429.452 139.9C429.184 140.057 428.986 140.226 428.864 140.424C428.735 140.616 428.677 140.855 428.677 141.128V141.443C428.677 141.565 428.613 141.664 428.491 141.734L427.798 142.136C427.617 142.06 427.617 141.722 427.617 141.722C427.617 141.198 427.763 140.703 428.06 140.243C428.357 139.783 428.77 139.399 429.306 139.09L430.249 138.549C430.779 138.24 431.199 138.147 431.49 138.263C431.787 138.38 431.932 138.706 431.932 139.23V139.824C431.932 140.459 431.647 141.029 431.065 141.536C431.641 141.338 431.932 141.577 431.932 142.247V142.875C431.932 143.4 431.787 143.895 431.49 144.355C431.193 144.815 430.779 145.199 430.249 145.508L429.306 146.049C428.77 146.358 428.357 146.451 428.06 146.335C427.763 146.218 427.617 145.892 427.617 145.368V144.989C427.617 144.861 427.676 144.762 427.798 144.687L428.491 144.285C428.677 144.372 428.677 144.727 428.677 144.727C428.677 144.995 428.741 145.152 428.864 145.211C428.992 145.263 429.184 145.217 429.452 145.059L430.092 144.692C430.628 144.384 430.896 143.97 430.896 143.452V142.858C430.896 142.334 430.628 142.223 430.092 142.532L429.498 142.875C429.312 142.8 429.312 142.311 429.312 142.311C429.318 142.182 429.376 142.078 429.498 142.008Z"
      fill="#7A88C4" />
    <path
      d="M435.869 142.258L434.832 142.858C434.296 143.166 433.883 143.254 433.586 143.132C433.289 143.009 433.143 142.683 433.143 142.153V138.554C433.143 138.018 433.289 137.523 433.586 137.063C433.883 136.603 434.296 136.219 434.832 135.91L436.987 134.67C437.173 134.746 437.173 135.311 437.173 135.311C437.173 135.427 437.109 135.52 436.987 135.59L434.989 136.743C434.471 137.04 434.209 137.459 434.209 137.995V138.921L435.874 137.96C436.41 137.652 436.824 137.558 437.115 137.681C437.412 137.803 437.557 138.129 437.557 138.665V139.614C437.557 140.138 437.412 140.639 437.115 141.105C436.818 141.565 436.404 141.949 435.869 142.258ZM434.983 141.85L435.717 141.425C436.235 141.128 436.497 140.709 436.497 140.173V139.305C436.497 138.77 436.235 138.653 435.717 138.956L434.203 139.83V141.495C434.203 142.031 434.465 142.147 434.983 141.85Z"
      fill="#7A88C4" />
    <path
      d="M239.473 184.42L243.142 194.565L246.892 179.901L250.368 177.781L254.036 187.978L257.786 173.262L262.055 170.659V171.789L255.76 193.394L252.394 195.421L248.563 185.544L244.865 199.946L241.5 201.972L235.205 188.136V187.017L239.473 184.42Z"
      fill="white" />
    <path
      d="M282.062 163.042L269.444 170.706V173.542L279.325 167.555V172.115L269.444 178.084V180.635L282.062 173.024V177.589L264.518 188.136V169.163L282.062 158.477V163.042V163.042Z"
      fill="white" />
    <path
      d="M295.338 149.822L296.107 149.356C302.238 145.623 303.933 147.178 303.933 150.34V150.917C303.933 152.617 303.141 154.563 300.678 156.746C303.554 155.698 304.48 156.659 304.48 158.359V158.936C304.48 162.104 302.675 165.779 296.107 169.727L295.338 170.187C292.025 172.179 288.438 174.135 285.323 175.638V156.502C288.444 154.225 292.025 151.837 295.338 149.822ZM290.249 157.76V160.933L295.123 157.981C299.56 155.296 299.56 154.545 299.56 153.572C299.56 152.623 299.42 151.93 295.455 154.341C294.11 155.157 292.054 156.49 290.249 157.76ZM290.249 165.511V168.399C292.054 167.479 294.081 166.349 295.53 165.47C299.909 162.832 300.101 161.941 300.101 160.992C300.101 160.188 300.101 159.553 295.123 162.564L290.249 165.511Z"
      fill="white" />
    <path
      d="M321.041 148.413C321.041 147.051 319.894 147.546 316.714 149.374C313.919 150.976 307.846 154.446 307.846 148.827V148.454C307.846 145.14 309.872 140.965 316.825 136.731L317.809 136.131C320.301 134.612 322.706 133.493 324.954 132.736V137.523C322.298 138.467 319.696 139.643 317.017 141.274C313.046 143.685 312.772 144.803 312.772 145.467C312.772 146.853 313.977 146.323 317.069 144.535C319.672 143.015 325.967 139.404 325.967 145.123V145.502C325.967 148.809 323.94 152.991 316.959 157.184L315.975 157.777C313.098 159.507 310.361 160.806 307.764 161.79V156.951C310.722 155.862 314.03 154.324 316.825 152.641C320.738 150.277 321.041 149.141 321.041 148.413Z"
      fill="white" />
    <path
      d="M349.643 131.153C349.643 129.772 348.496 130.262 345.316 132.096C342.521 133.697 336.448 137.162 336.448 131.479V131.1C336.448 127.746 338.474 123.541 345.427 119.302L346.411 118.702C348.903 117.182 351.308 116.07 353.556 115.318V120.164C350.901 121.101 348.298 122.272 345.619 123.896C341.648 126.307 341.374 127.437 341.374 128.107C341.374 129.51 342.58 128.986 345.672 127.198C348.274 125.678 354.569 122.074 354.569 127.856V128.241C354.569 131.589 352.543 135.8 345.561 139.998L344.577 140.592C341.706 142.322 338.964 143.615 336.367 144.593V139.696C339.325 138.612 342.632 137.081 345.427 135.398C349.346 133.034 349.643 131.88 349.643 131.153Z"
      fill="white" />
    <path
      d="M363.88 128.392V113.361L356.764 117.682V112.983L375.951 101.295V106.035L368.806 110.374V125.433L363.88 128.392Z"
      fill="white" />
    <path
      d="M378.14 109.122C378.14 103.759 380.359 98.0224 388.325 93.1655L389.309 92.5657C397.274 87.7147 399.493 90.7837 399.493 96.1938V97.7487C399.493 103.159 397.274 108.912 389.309 113.699L388.325 114.293C380.359 119.08 378.14 116.029 378.14 110.659V109.122ZM388.814 109.233C394.561 105.768 394.561 102.996 394.561 99.95C394.561 96.9392 394.561 94.1614 388.814 97.6555C383.066 101.15 383.066 103.91 383.066 106.909C383.066 109.937 383.066 112.698 388.814 109.233Z"
      fill="white" />
    <path
      d="M402.777 94.2024C402.777 88.7865 404.937 83.0387 412.688 78.3217L413.672 77.7218C416.135 76.2194 418.487 75.1478 420.735 74.4141V79.3233C418.219 80.0396 415.395 81.4489 413.538 82.5787C407.82 86.0553 407.82 88.5128 407.82 91.9312C407.82 95.3497 407.82 97.8363 413.538 94.3888C415.401 93.2648 418.219 91.2382 420.735 88.903V93.8472C418.493 95.7981 416.135 97.5742 413.672 99.0534L412.688 99.6474C404.943 104.3 402.777 101.173 402.777 95.7573V94.2024Z"
      fill="white" />
    <path
      d="M428.671 69.1841V77.0459L431.822 75.1358L437.79 63.6343L442.606 60.6992V61.9163L435.845 74.9727L442.606 79.847V81.0641L437.79 83.9584L432.043 79.847L428.677 81.8794V89.4383L423.751 92.4025V72.189L428.671 69.1841Z"
      fill="white" />
    <path
      d="M458.339 65.5444C458.339 64.106 457.192 64.5894 454.013 66.4121C451.218 68.0078 445.144 71.467 445.144 65.5328V65.1368C445.144 61.6368 447.171 57.2983 454.123 53.0646L455.108 52.4648C457.6 50.9448 460.005 49.8442 462.252 49.1221V54.1769C459.597 55.0854 456.994 56.2384 454.316 57.8632C450.344 60.2741 450.071 61.4447 450.071 62.1493C450.071 63.611 451.276 63.0927 454.368 61.3107C456.971 59.7966 463.265 56.1977 463.265 62.2308V62.6268C463.265 66.121 461.239 70.4595 454.257 74.6582L453.273 75.2522C450.397 76.9818 447.66 78.2572 445.063 79.2122V74.0992C448.021 73.0451 451.328 71.5368 454.123 69.8538C458.036 67.5011 458.339 66.3073 458.339 65.5444Z"
      fill="white" />
  </g>
  <defs>
    <linearGradient id="paint0_linear_1135_2395" x1="157.541" y1="476.487" x2="285.963" y2="476.487"
      gradientUnits="userSpaceOnUse">
      <stop stop-color="#F7F6FB" />
      <stop offset="1" stop-color="white" />
    </linearGradient>
    <linearGradient id="paint1_linear_1135_2395" x1="208.869" y1="427.31" x2="223.223" y2="452.168"
      gradientUnits="userSpaceOnUse">
      <stop stop-color="#CEC9D5" />
      <stop offset="1" stop-color="#EAE7EC" />
    </linearGradient>
    <linearGradient id="paint2_linear_1135_2395" x1="264.876" y1="363.15" x2="170.361" y2="363.15"
      gradientUnits="userSpaceOnUse">
      <stop stop-color="#E0DBE1" />
      <stop offset="1" stop-color="#E0DBE1" />
    </linearGradient>
    <linearGradient id="paint3_linear_1135_2395" x1="21.229" y1="135.957" x2="405.327" y2="135.957"
      gradientUnits="userSpaceOnUse">
      <stop stop-color="#F7F6FB" />
      <stop offset="1" stop-color="white" />
    </linearGradient>
    <linearGradient id="paint4_linear_1135_2395" x1="116.187" y1="298.493" x2="50.1551" y2="230.031"
      gradientUnits="userSpaceOnUse">
      <stop stop-color="#61BFEC" />
      <stop offset="0.249" stop-color="#7058A5" />
      <stop offset="0.5786" stop-color="#BF5AA2" />
      <stop offset="0.7404" stop-color="#F47944" />
      <stop offset="1" stop-color="#FEDE40" />
    </linearGradient>
    <linearGradient id="paint5_linear_1135_2395" x1="114.717" y1="301.512" x2="48.2166" y2="232.564"
      gradientUnits="userSpaceOnUse">
      <stop stop-color="#61BFEC" />
      <stop offset="0.249" stop-color="#7058A5" />
      <stop offset="0.5786" stop-color="#BF5AA2" />
      <stop offset="0.7404" stop-color="#F47944" />
      <stop offset="1" stop-color="#FEDE40" />
    </linearGradient>
    <linearGradient id="paint6_linear_1135_2395" x1="112.644" y1="305.441" x2="45.6933" y2="236.028"
      gradientUnits="userSpaceOnUse">
      <stop stop-color="#61BFEC" />
      <stop offset="0.249" stop-color="#7058A5" />
      <stop offset="0.5786" stop-color="#BF5AA2" />
      <stop offset="0.7404" stop-color="#F47944" />
      <stop offset="1" stop-color="#FEDE40" />
    </linearGradient>
    <linearGradient id="paint7_linear_1135_2395" x1="109.995" y1="310.162" x2="42.6566" y2="240.346"
      gradientUnits="userSpaceOnUse">
      <stop stop-color="#61BFEC" />
      <stop offset="0.249" stop-color="#7058A5" />
      <stop offset="0.5786" stop-color="#BF5AA2" />
      <stop offset="0.7404" stop-color="#F47944" />
      <stop offset="1" stop-color="#FEDE40" />
    </linearGradient>
    <linearGradient id="paint8_linear_1135_2395" x1="107.158" y1="315.09" x2="39.4935" y2="244.937"
      gradientUnits="userSpaceOnUse">
      <stop stop-color="#61BFEC" />
      <stop offset="0.249" stop-color="#7058A5" />
      <stop offset="0.5786" stop-color="#BF5AA2" />
      <stop offset="0.7404" stop-color="#F47944" />
      <stop offset="1" stop-color="#FEDE40" />
    </linearGradient>
    <linearGradient id="paint9_linear_1135_2395" x1="104.305" y1="319.814" x2="36.4455" y2="249.458"
      gradientUnits="userSpaceOnUse">
      <stop stop-color="#61BFEC" />
      <stop offset="0.249" stop-color="#7058A5" />
      <stop offset="0.5786" stop-color="#BF5AA2" />
      <stop offset="0.7404" stop-color="#F47944" />
      <stop offset="1" stop-color="#FEDE40" />
    </linearGradient>
    <linearGradient id="paint10_linear_1135_2395" x1="101.402" y1="324.462" x2="33.4367" y2="253.997"
      gradientUnits="userSpaceOnUse">
      <stop stop-color="#61BFEC" />
      <stop offset="0.249" stop-color="#7058A5" />
      <stop offset="0.5786" stop-color="#BF5AA2" />
      <stop offset="0.7404" stop-color="#F47944" />
      <stop offset="1" stop-color="#FEDE40" />
    </linearGradient>
    <linearGradient id="paint11_linear_1135_2395" x1="98.9875" y1="328.134" x2="31.0396" y2="257.686"
      gradientUnits="userSpaceOnUse">
      <stop stop-color="#61BFEC" />
      <stop offset="0.249" stop-color="#7058A5" />
      <stop offset="0.5786" stop-color="#BF5AA2" />
      <stop offset="0.7404" stop-color="#F47944" />
      <stop offset="1" stop-color="#FEDE40" />
    </linearGradient>
    <linearGradient id="paint12_linear_1135_2395" x1="97.2131" y1="330.528" x2="29.4336" y2="260.255"
      gradientUnits="userSpaceOnUse">
      <stop stop-color="#61BFEC" />
      <stop offset="0.249" stop-color="#7058A5" />
      <stop offset="0.5786" stop-color="#BF5AA2" />
      <stop offset="0.7404" stop-color="#F47944" />
      <stop offset="1" stop-color="#FEDE40" />
    </linearGradient>
    <linearGradient id="paint13_linear_1135_2395" x1="95.9023" y1="332.057" x2="28.3749" y2="262.046"
      gradientUnits="userSpaceOnUse">
      <stop stop-color="#61BFEC" />
      <stop offset="0.249" stop-color="#7058A5" />
      <stop offset="0.5786" stop-color="#BF5AA2" />
      <stop offset="0.7404" stop-color="#F47944" />
      <stop offset="1" stop-color="#FEDE40" />
    </linearGradient>
    <linearGradient id="paint14_linear_1135_2395" x1="95.446" y1="332.106" x2="28.2619" y2="262.451"
      gradientUnits="userSpaceOnUse">
      <stop stop-color="#61BFEC" />
      <stop offset="0.249" stop-color="#7058A5" />
      <stop offset="0.5786" stop-color="#BF5AA2" />
      <stop offset="0.7404" stop-color="#F47944" />
      <stop offset="1" stop-color="#FEDE40" />
    </linearGradient>
    <linearGradient id="paint15_linear_1135_2395" x1="95.971" y1="330.506" x2="29.2131" y2="261.292"
      gradientUnits="userSpaceOnUse">
      <stop stop-color="#61BFEC" />
      <stop offset="0.249" stop-color="#7058A5" />
      <stop offset="0.5786" stop-color="#BF5AA2" />
      <stop offset="0.7404" stop-color="#F47944" />
      <stop offset="1" stop-color="#FEDE40" />
    </linearGradient>
    <linearGradient id="paint16_linear_1135_2395" x1="97.058" y1="328.01" x2="30.7618" y2="259.274"
      gradientUnits="userSpaceOnUse">
      <stop stop-color="#61BFEC" />
      <stop offset="0.249" stop-color="#7058A5" />
      <stop offset="0.5786" stop-color="#BF5AA2" />
      <stop offset="0.7404" stop-color="#F47944" />
      <stop offset="1" stop-color="#FEDE40" />
    </linearGradient>
    <linearGradient id="paint17_linear_1135_2395" x1="98.8954" y1="324.437" x2="33.0348" y2="256.154"
      gradientUnits="userSpaceOnUse">
      <stop stop-color="#61BFEC" />
      <stop offset="0.249" stop-color="#7058A5" />
      <stop offset="0.5786" stop-color="#BF5AA2" />
      <stop offset="0.7404" stop-color="#F47944" />
      <stop offset="1" stop-color="#FEDE40" />
    </linearGradient>
    <linearGradient id="paint18_linear_1135_2395" x1="101.254" y1="320.111" x2="35.8252" y2="252.276"
      gradientUnits="userSpaceOnUse">
      <stop stop-color="#61BFEC" />
      <stop offset="0.249" stop-color="#7058A5" />
      <stop offset="0.5786" stop-color="#BF5AA2" />
      <stop offset="0.7404" stop-color="#F47944" />
      <stop offset="1" stop-color="#FEDE40" />
    </linearGradient>
    <linearGradient id="paint19_linear_1135_2395" x1="104.085" y1="315.173" x2="39.045" y2="247.741"
      gradientUnits="userSpaceOnUse">
      <stop stop-color="#61BFEC" />
      <stop offset="0.249" stop-color="#7058A5" />
      <stop offset="0.5786" stop-color="#BF5AA2" />
      <stop offset="0.7404" stop-color="#F47944" />
      <stop offset="1" stop-color="#FEDE40" />
    </linearGradient>
    <linearGradient id="paint20_linear_1135_2395" x1="105.768" y1="311.8" x2="41.2974" y2="244.958"
      gradientUnits="userSpaceOnUse">
      <stop stop-color="#61BFEC" />
      <stop offset="0.249" stop-color="#7058A5" />
      <stop offset="0.5786" stop-color="#BF5AA2" />
      <stop offset="0.7404" stop-color="#F47944" />
      <stop offset="1" stop-color="#FEDE40" />
    </linearGradient>
    <linearGradient id="paint21_linear_1135_2395" x1="107.406" y1="309.73" x2="42.619" y2="242.56"
      gradientUnits="userSpaceOnUse">
      <stop stop-color="#61BFEC" />
      <stop offset="0.249" stop-color="#7058A5" />
      <stop offset="0.5786" stop-color="#BF5AA2" />
      <stop offset="0.7404" stop-color="#F47944" />
      <stop offset="1" stop-color="#FEDE40" />
    </linearGradient>
    <linearGradient id="paint22_linear_1135_2395" x1="108.728" y1="307.073" x2="44.4131" y2="240.391"
      gradientUnits="userSpaceOnUse">
      <stop stop-color="#61BFEC" />
      <stop offset="0.249" stop-color="#7058A5" />
      <stop offset="0.5786" stop-color="#BF5AA2" />
      <stop offset="0.7404" stop-color="#F47944" />
      <stop offset="1" stop-color="#FEDE40" />
    </linearGradient>
    <linearGradient id="paint23_linear_1135_2395" x1="101.776" y1="318.633" x2="36.8043" y2="251.271"
      gradientUnits="userSpaceOnUse">
      <stop stop-color="#61BFEC" />
      <stop offset="0.249" stop-color="#7058A5" />
      <stop offset="0.5786" stop-color="#BF5AA2" />
      <stop offset="0.7404" stop-color="#F47944" />
      <stop offset="1" stop-color="#FEDE40" />
    </linearGradient>
    <linearGradient id="paint24_linear_1135_2395" x1="98.4258" y1="324.586" x2="32.9371" y2="256.689"
      gradientUnits="userSpaceOnUse">
      <stop stop-color="#61BFEC" />
      <stop offset="0.249" stop-color="#7058A5" />
      <stop offset="0.5786" stop-color="#BF5AA2" />
      <stop offset="0.7404" stop-color="#F47944" />
      <stop offset="1" stop-color="#FEDE40" />
    </linearGradient>
    <linearGradient id="paint25_linear_1135_2395" x1="95.944" y1="329.322" x2="29.9036" y2="260.852"
      gradientUnits="userSpaceOnUse">
      <stop stop-color="#61BFEC" />
      <stop offset="0.249" stop-color="#7058A5" />
      <stop offset="0.5786" stop-color="#BF5AA2" />
      <stop offset="0.7404" stop-color="#F47944" />
      <stop offset="1" stop-color="#FEDE40" />
    </linearGradient>
    <linearGradient id="paint26_linear_1135_2395" x1="93.9934" y1="333.31" x2="27.3967" y2="264.264"
      gradientUnits="userSpaceOnUse">
      <stop stop-color="#61BFEC" />
      <stop offset="0.249" stop-color="#7058A5" />
      <stop offset="0.5786" stop-color="#BF5AA2" />
      <stop offset="0.7404" stop-color="#F47944" />
      <stop offset="1" stop-color="#FEDE40" />
    </linearGradient>
    <linearGradient id="paint27_linear_1135_2395" x1="93.0777" y1="335.757" x2="25.9211" y2="266.129"
      gradientUnits="userSpaceOnUse">
      <stop stop-color="#61BFEC" />
      <stop offset="0.249" stop-color="#7058A5" />
      <stop offset="0.5786" stop-color="#BF5AA2" />
      <stop offset="0.7404" stop-color="#F47944" />
      <stop offset="1" stop-color="#FEDE40" />
    </linearGradient>
    <linearGradient id="paint28_linear_1135_2395" x1="93.1542" y1="336.556" x2="25.5187" y2="266.432"
      gradientUnits="userSpaceOnUse">
      <stop stop-color="#61BFEC" />
      <stop offset="0.249" stop-color="#7058A5" />
      <stop offset="0.5786" stop-color="#BF5AA2" />
      <stop offset="0.7404" stop-color="#F47944" />
      <stop offset="1" stop-color="#FEDE40" />
    </linearGradient>
    <linearGradient id="paint29_linear_1135_2395" x1="94.2477" y1="335.571" x2="26.2543" y2="265.075"
      gradientUnits="userSpaceOnUse">
      <stop stop-color="#61BFEC" />
      <stop offset="0.249" stop-color="#7058A5" />
      <stop offset="0.5786" stop-color="#BF5AA2" />
      <stop offset="0.7404" stop-color="#F47944" />
      <stop offset="1" stop-color="#FEDE40" />
    </linearGradient>
    <linearGradient id="paint30_linear_1135_2395" x1="96.1975" y1="333.103" x2="27.9358" y2="262.33"
      gradientUnits="userSpaceOnUse">
      <stop stop-color="#61BFEC" />
      <stop offset="0.249" stop-color="#7058A5" />
      <stop offset="0.5786" stop-color="#BF5AA2" />
      <stop offset="0.7404" stop-color="#F47944" />
      <stop offset="1" stop-color="#FEDE40" />
    </linearGradient>
    <linearGradient id="paint31_linear_1135_2395" x1="98.7903" y1="329.352" x2="30.4109" y2="258.457"
      gradientUnits="userSpaceOnUse">
      <stop stop-color="#61BFEC" />
      <stop offset="0.249" stop-color="#7058A5" />
      <stop offset="0.5786" stop-color="#BF5AA2" />
      <stop offset="0.7404" stop-color="#F47944" />
      <stop offset="1" stop-color="#FEDE40" />
    </linearGradient>
    <linearGradient id="paint32_linear_1135_2395" x1="102.165" y1="324.048" x2="33.8465" y2="253.217"
      gradientUnits="userSpaceOnUse">
      <stop stop-color="#61BFEC" />
      <stop offset="0.249" stop-color="#7058A5" />
      <stop offset="0.5786" stop-color="#BF5AA2" />
      <stop offset="0.7404" stop-color="#F47944" />
      <stop offset="1" stop-color="#FEDE40" />
    </linearGradient>
    <linearGradient id="paint33_linear_1135_2395" x1="105.519" y1="318.543" x2="37.3903" y2="247.907"
      gradientUnits="userSpaceOnUse">
      <stop stop-color="#61BFEC" />
      <stop offset="0.249" stop-color="#7058A5" />
      <stop offset="0.5786" stop-color="#BF5AA2" />
      <stop offset="0.7404" stop-color="#F47944" />
      <stop offset="1" stop-color="#FEDE40" />
    </linearGradient>
    <linearGradient id="paint34_linear_1135_2395" x1="109.123" y1="312.404" x2="41.3266" y2="242.115"
      gradientUnits="userSpaceOnUse">
      <stop stop-color="#61BFEC" />
      <stop offset="0.249" stop-color="#7058A5" />
      <stop offset="0.5786" stop-color="#BF5AA2" />
      <stop offset="0.7404" stop-color="#F47944" />
      <stop offset="1" stop-color="#FEDE40" />
    </linearGradient>
    <linearGradient id="paint35_linear_1135_2395" x1="112.416" y1="306.64" x2="45.0292" y2="236.774"
      gradientUnits="userSpaceOnUse">
      <stop stop-color="#61BFEC" />
      <stop offset="0.249" stop-color="#7058A5" />
      <stop offset="0.5786" stop-color="#BF5AA2" />
      <stop offset="0.7404" stop-color="#F47944" />
      <stop offset="1" stop-color="#FEDE40" />
    </linearGradient>
    <linearGradient id="paint36_linear_1135_2395" x1="115.32" y1="301.271" x2="48.4704" y2="231.961"
      gradientUnits="userSpaceOnUse">
      <stop stop-color="#61BFEC" />
      <stop offset="0.249" stop-color="#7058A5" />
      <stop offset="0.5786" stop-color="#BF5AA2" />
      <stop offset="0.7404" stop-color="#F47944" />
      <stop offset="1" stop-color="#FEDE40" />
    </linearGradient>
    <linearGradient id="paint37_linear_1135_2395" x1="117.627" y1="296.826" x2="51.3339" y2="228.094"
      gradientUnits="userSpaceOnUse">
      <stop stop-color="#61BFEC" />
      <stop offset="0.249" stop-color="#7058A5" />
      <stop offset="0.5786" stop-color="#BF5AA2" />
      <stop offset="0.7404" stop-color="#F47944" />
      <stop offset="1" stop-color="#FEDE40" />
    </linearGradient>
    <linearGradient id="paint38_linear_1135_2395" x1="119.067" y1="293.719" x2="53.3374" y2="225.571"
      gradientUnits="userSpaceOnUse">
      <stop stop-color="#61BFEC" />
      <stop offset="0.249" stop-color="#7058A5" />
      <stop offset="0.5786" stop-color="#BF5AA2" />
      <stop offset="0.7404" stop-color="#F47944" />
      <stop offset="1" stop-color="#FEDE40" />
    </linearGradient>
    <linearGradient id="paint39_linear_1135_2395" x1="119.755" y1="293.101" x2="53.7954" y2="224.715"
      gradientUnits="userSpaceOnUse">
      <stop stop-color="#61BFEC" />
      <stop offset="0.249" stop-color="#7058A5" />
      <stop offset="0.5786" stop-color="#BF5AA2" />
      <stop offset="0.7404" stop-color="#F47944" />
      <stop offset="1" stop-color="#FEDE40" />
    </linearGradient>
    <linearGradient id="paint40_linear_1135_2395" x1="117.867" y1="297.046" x2="51.2619" y2="227.989"
      gradientUnits="userSpaceOnUse">
      <stop stop-color="#61BFEC" />
      <stop offset="0.249" stop-color="#7058A5" />
      <stop offset="0.5786" stop-color="#BF5AA2" />
      <stop offset="0.7404" stop-color="#F47944" />
      <stop offset="1" stop-color="#FEDE40" />
    </linearGradient>
    <linearGradient id="paint41_linear_1135_2395" x1="114.883" y1="302.646" x2="47.6608" y2="232.949"
      gradientUnits="userSpaceOnUse">
      <stop stop-color="#61BFEC" />
      <stop offset="0.249" stop-color="#7058A5" />
      <stop offset="0.5786" stop-color="#BF5AA2" />
      <stop offset="0.7404" stop-color="#F47944" />
      <stop offset="1" stop-color="#FEDE40" />
    </linearGradient>
    <linearGradient id="paint42_linear_1135_2395" x1="111.487" y1="308.771" x2="43.7364" y2="238.527"
      gradientUnits="userSpaceOnUse">
      <stop stop-color="#61BFEC" />
      <stop offset="0.249" stop-color="#7058A5" />
      <stop offset="0.5786" stop-color="#BF5AA2" />
      <stop offset="0.7404" stop-color="#F47944" />
      <stop offset="1" stop-color="#FEDE40" />
    </linearGradient>
    <linearGradient id="paint43_linear_1135_2395" x1="107.669" y1="315.431" x2="39.4775" y2="244.731"
      gradientUnits="userSpaceOnUse">
      <stop stop-color="#61BFEC" />
      <stop offset="0.249" stop-color="#7058A5" />
      <stop offset="0.5786" stop-color="#BF5AA2" />
      <stop offset="0.7404" stop-color="#F47944" />
      <stop offset="1" stop-color="#FEDE40" />
    </linearGradient>
    <linearGradient id="paint44_linear_1135_2395" x1="103.595" y1="322.221" x2="35.1173" y2="251.223"
      gradientUnits="userSpaceOnUse">
      <stop stop-color="#61BFEC" />
      <stop offset="0.249" stop-color="#7058A5" />
      <stop offset="0.5786" stop-color="#BF5AA2" />
      <stop offset="0.7404" stop-color="#F47944" />
      <stop offset="1" stop-color="#FEDE40" />
    </linearGradient>
    <linearGradient id="paint45_linear_1135_2395" x1="116.794" y1="296.735" x2="51.2689" y2="228.798"
      gradientUnits="userSpaceOnUse">
      <stop stop-color="#61BFEC" />
      <stop offset="0.249" stop-color="#7058A5" />
      <stop offset="0.5786" stop-color="#BF5AA2" />
      <stop offset="0.7404" stop-color="#F47944" />
      <stop offset="1" stop-color="#FEDE40" />
    </linearGradient>
    <linearGradient id="paint46_linear_1135_2395" x1="119.452" y1="292.428" x2="54.1597" y2="224.733"
      gradientUnits="userSpaceOnUse">
      <stop stop-color="#61BFEC" />
      <stop offset="0.249" stop-color="#7058A5" />
      <stop offset="0.5786" stop-color="#BF5AA2" />
      <stop offset="0.7404" stop-color="#F47944" />
      <stop offset="1" stop-color="#FEDE40" />
    </linearGradient>
    <linearGradient id="paint47_linear_1135_2395" x1="99.9171" y1="328.092" x2="31.3228" y2="256.975"
      gradientUnits="userSpaceOnUse">
      <stop stop-color="#61BFEC" />
      <stop offset="0.249" stop-color="#7058A5" />
      <stop offset="0.5786" stop-color="#BF5AA2" />
      <stop offset="0.7404" stop-color="#F47944" />
      <stop offset="1" stop-color="#FEDE40" />
    </linearGradient>
    <linearGradient id="paint48_linear_1135_2395" x1="96.4825" y1="333.322" x2="27.9147" y2="262.233"
      gradientUnits="userSpaceOnUse">
      <stop stop-color="#61BFEC" />
      <stop offset="0.249" stop-color="#7058A5" />
      <stop offset="0.5786" stop-color="#BF5AA2" />
      <stop offset="0.7404" stop-color="#F47944" />
      <stop offset="1" stop-color="#FEDE40" />
    </linearGradient>
    <linearGradient id="paint49_linear_1135_2395" x1="93.8349" y1="336.986" x2="25.4733" y2="266.111"
      gradientUnits="userSpaceOnUse">
      <stop stop-color="#61BFEC" />
      <stop offset="0.249" stop-color="#7058A5" />
      <stop offset="0.5786" stop-color="#BF5AA2" />
      <stop offset="0.7404" stop-color="#F47944" />
      <stop offset="1" stop-color="#FEDE40" />
    </linearGradient>
    <linearGradient id="paint50_linear_1135_2395" x1="92.07" y1="339.042" x2="24.0423" y2="268.512"
      gradientUnits="userSpaceOnUse">
      <stop stop-color="#61BFEC" />
      <stop offset="0.249" stop-color="#7058A5" />
      <stop offset="0.5786" stop-color="#BF5AA2" />
      <stop offset="0.7404" stop-color="#F47944" />
      <stop offset="1" stop-color="#FEDE40" />
    </linearGradient>
    <linearGradient id="paint51_linear_1135_2395" x1="91.4707" y1="339.018" x2="23.9249" y2="268.987"
      gradientUnits="userSpaceOnUse">
      <stop stop-color="#61BFEC" />
      <stop offset="0.249" stop-color="#7058A5" />
      <stop offset="0.5786" stop-color="#BF5AA2" />
      <stop offset="0.7404" stop-color="#F47944" />
      <stop offset="1" stop-color="#FEDE40" />
    </linearGradient>
    <linearGradient id="paint52_linear_1135_2395" x1="92.0159" y1="337.046" x2="25.0633" y2="267.63"
      gradientUnits="userSpaceOnUse">
      <stop stop-color="#61BFEC" />
      <stop offset="0.249" stop-color="#7058A5" />
      <stop offset="0.5786" stop-color="#BF5AA2" />
      <stop offset="0.7404" stop-color="#F47944" />
      <stop offset="1" stop-color="#FEDE40" />
    </linearGradient>
    <linearGradient id="paint53_linear_1135_2395" x1="93.6424" y1="333.398" x2="27.3157" y2="264.632"
      gradientUnits="userSpaceOnUse">
      <stop stop-color="#61BFEC" />
      <stop offset="0.249" stop-color="#7058A5" />
      <stop offset="0.5786" stop-color="#BF5AA2" />
      <stop offset="0.7404" stop-color="#F47944" />
      <stop offset="1" stop-color="#FEDE40" />
    </linearGradient>
    <linearGradient id="paint54_linear_1135_2395" x1="96.0819" y1="328.539" x2="30.3993" y2="260.439"
      gradientUnits="userSpaceOnUse">
      <stop stop-color="#61BFEC" />
      <stop offset="0.249" stop-color="#7058A5" />
      <stop offset="0.5786" stop-color="#BF5AA2" />
      <stop offset="0.7404" stop-color="#F47944" />
      <stop offset="1" stop-color="#FEDE40" />
    </linearGradient>
    <linearGradient id="paint55_linear_1135_2395" x1="99.5131" y1="322.303" x2="34.4274" y2="254.822"
      gradientUnits="userSpaceOnUse">
      <stop stop-color="#61BFEC" />
      <stop offset="0.249" stop-color="#7058A5" />
      <stop offset="0.5786" stop-color="#BF5AA2" />
      <stop offset="0.7404" stop-color="#F47944" />
      <stop offset="1" stop-color="#FEDE40" />
    </linearGradient>
    <linearGradient id="paint56_linear_1135_2395" x1="103.222" y1="315.89" x2="38.6192" y2="248.912"
      gradientUnits="userSpaceOnUse">
      <stop stop-color="#61BFEC" />
      <stop offset="0.249" stop-color="#7058A5" />
      <stop offset="0.5786" stop-color="#BF5AA2" />
      <stop offset="0.7404" stop-color="#F47944" />
      <stop offset="1" stop-color="#FEDE40" />
    </linearGradient>
    <linearGradient id="paint57_linear_1135_2395" x1="181.037" y1="501.824" x2="467.462" y2="5.77309"
      gradientUnits="userSpaceOnUse">
      <stop stop-color="#2E2E43" />
      <stop offset="1" stop-color="#3C3C5A" />
    </linearGradient>
    <clipPath id="clip0_1135_2395">
      <rect width="559" height="594" fill="white" />
    </clipPath>
  </defs>
</svg>