<svg width="26" height="18" viewBox="0 0 26 18" fill="none" xmlns="http://www.w3.org/2000/svg">
    <path
        d="M23.1111 0C24.7045 0 26 1.34297 26 3V15C26 16.6547 24.7045 18 23.1111 18H2.88889C1.29323 18 0 16.6547 0 15V3C0 1.34297 1.29323 0 2.88889 0H23.1111ZM12.2778 6C11.8806 6 11.5556 6.3375 11.5556 6.75C11.5556 7.1625 11.8806 7.5 12.2778 7.5H22.3889C22.7861 7.5 23.1111 7.1625 23.1111 6.75C23.1111 6.3375 22.7861 6 22.3889 6H12.2778ZM12.2778 12H22.3889C22.7861 12 23.1111 11.6625 23.1111 11.25C23.1111 10.8375 22.7861 10.5 22.3889 10.5H12.2778C11.8806 10.5 11.5556 10.8375 11.5556 11.25C11.5556 11.6625 11.8806 12 12.2778 12ZM7.40729 4.5C7.40729 3.97969 7.00104 3.55781 6.45938 3.55781C5.99896 3.55781 5.59271 3.97969 5.59271 4.5V4.78125C5.33993 4.8375 5.06007 4.91719 4.875 5.02031C4.20062 5.33906 3.61427 5.92969 3.47163 6.7875C3.39174 7.26562 3.43417 7.72969 3.62556 8.14688C3.81288 8.55937 4.10764 8.85 4.40691 9.06094C4.92917 9.43125 5.61979 9.64687 6.14792 9.81094L6.24722 9.83906C6.87917 10.0406 7.30347 10.1859 7.56979 10.3875C7.68264 10.4719 7.72326 10.5375 7.7368 10.5797C7.75486 10.6172 7.78194 10.7016 7.75035 10.8891C7.72326 11.0531 7.6375 11.1938 7.38924 11.3016C7.11389 11.4234 6.66701 11.4844 6.08924 11.3906C5.8184 11.3438 5.33542 11.175 4.9066 11.025C4.80729 10.9875 4.70799 10.9547 4.61771 10.9219C4.14556 10.7578 3.63413 11.025 3.4766 11.5172C3.31906 12.0094 3.575 12.5391 4.04806 12.6609C4.10267 12.7219 4.17038 12.7453 4.24802 12.7734C4.56354 12.9 5.16389 13.0969 5.59271 13.2V13.5C5.59271 14.0203 5.99896 14.4422 6.45938 14.4422C7.00104 14.4422 7.40729 14.0203 7.40729 13.5V13.2422C7.64653 13.1953 7.88125 13.0828 8.09792 13.0266C8.81111 12.7125 9.37986 12.1031 9.52882 11.2125C9.61007 10.725 9.57396 10.2563 9.3934 9.82969C9.21736 9.40781 8.93299 9.09844 8.63056 8.87344C8.08437 8.45625 7.35313 8.23125 6.80694 8.05781L6.73021 8.04844C6.12986 7.84687 5.69653 7.70625 5.42118 7.50937C5.30382 7.425 5.26771 7.36875 5.25868 7.34531C5.24965 7.32656 5.22257 7.27031 5.24965 7.11094C5.26771 7.01719 5.33542 6.8625 5.61979 6.73125C5.87257 6.59531 6.36007 6.52031 6.91076 6.56719C7.10938 6.64219 7.71875 6.76406 7.89479 6.81094C8.37326 6.94688 8.86979 6.64688 8.99618 6.14531C9.12708 5.64844 8.83819 5.13281 8.35521 5.00156C8.1566 4.94531 7.70521 4.85156 7.40729 4.79531V4.5Z"
        fill="#FFDE3E" />
</svg>