<svg width="16" height="16" viewBox="0 0 36 36" fill="none" xmlns="http://www.w3.org/2000/svg">
  <path
    d="M28.8 10.8H6.29998V9.89997L26.1 8.31597V9.89997H28.8V7.19998C28.8 5.21998 27.1962 3.83038 25.2378 4.10938L7.16398 6.69058C5.20378 6.97137 3.59998 8.81997 3.59998 10.8V28.8C3.59998 29.7548 3.97926 30.6704 4.65439 31.3456C5.32952 32.0207 6.2452 32.4 7.19998 32.4H28.8C29.7548 32.4 30.6704 32.0207 31.3456 31.3456C32.0207 30.6704 32.4 29.7548 32.4 28.8V14.4C32.4 13.4452 32.0207 12.5295 31.3456 11.8544C30.6704 11.1793 29.7548 10.8 28.8 10.8ZM26.1 23.4108C25.7453 23.4107 25.3941 23.3407 25.0665 23.2048C24.7388 23.069 24.4411 22.8699 24.1904 22.6191C23.9397 22.3682 23.7408 22.0704 23.6052 21.7426C23.4696 21.4149 23.3999 21.0637 23.4 20.709C23.4001 20.3543 23.4701 20.0031 23.6059 19.6755C23.7418 19.3478 23.9408 19.0501 24.1917 18.7994C24.4426 18.5487 24.7404 18.3498 25.0681 18.2142C25.3958 18.0786 25.7471 18.0089 26.1018 18.009C26.8181 18.0092 27.505 18.294 28.0113 18.8007C28.5177 19.3074 28.802 19.9945 28.8018 20.7108C28.8015 21.4271 28.5167 22.114 28.0101 22.6203C27.5034 23.1267 26.8163 23.411 26.1 23.4108Z"
    fill="#F8F8F8" />
</svg>